<svg width="20" height="15" viewBox="0 0 20 15" fill="none" xmlns="http://www.w3.org/2000/svg">
<path d="M1.00002 15H19C19.1823 14.9994 19.3609 14.9492 19.5167 14.8546C19.6725 14.7601 19.7996 14.6248 19.8842 14.4635C19.9689 14.3021 20.0079 14.1207 19.9971 13.9387C19.9863 13.7568 19.9262 13.5813 19.823 13.431L10.823 0.431014C10.45 -0.107986 9.55203 -0.107986 9.17803 0.431014L0.178024 13.431C0.0738493 13.581 0.0127586 13.7566 0.00138961 13.9388C-0.00997935 14.121 0.0288083 14.3029 0.113538 14.4646C0.198268 14.6263 0.3257 14.7618 0.481989 14.8562C0.638277 14.9505 0.817444 15.0003 1.00002 15Z" fill="#5E5E5E"/>
</svg>
