<svg xmlns="http://www.w3.org/2000/svg" width="13.667" height="16.827" viewBox="0 0 13.667 16.827">
  <g id="bin" transform="translate(0.003 0.001)">
    <path id="Path_1731" data-name="Path 1731" d="M222.792,154.7a.394.394,0,0,0-.394.394v7.448a.394.394,0,0,0,.788,0V155.1A.394.394,0,0,0,222.792,154.7Zm0,0" transform="translate(-213.637 -148.608)" fill="#414141"/>
    <path id="Path_1732" data-name="Path 1732" d="M104.792,154.7a.394.394,0,0,0-.394.394v7.448a.394.394,0,0,0,.788,0V155.1A.394.394,0,0,0,104.792,154.7Zm0,0" transform="translate(-100.287 -148.608)" fill="#414141"/>
    <path id="Path_1733" data-name="Path 1733" d="M1.116,5.008v9.709a2.174,2.174,0,0,0,.578,1.5,1.941,1.941,0,0,0,1.408.609h7.456a1.94,1.94,0,0,0,1.408-.609,2.174,2.174,0,0,0,.578-1.5V5.008a1.505,1.505,0,0,0-.386-2.96H10.14V1.555A1.548,1.548,0,0,0,8.58,0H5.08A1.548,1.548,0,0,0,3.52,1.555v.493H1.5a1.505,1.505,0,0,0-.386,2.96Zm9.442,11.029H3.1a1.248,1.248,0,0,1-1.2-1.32V5.043h9.852v9.675a1.248,1.248,0,0,1-1.2,1.32ZM4.308,1.555A.759.759,0,0,1,5.08.787h3.5a.759.759,0,0,1,.772.768v.493H4.308ZM1.5,2.836H12.158a.709.709,0,1,1,0,1.419H1.5a.709.709,0,0,1,0-1.419Zm0,0" transform="translate(0)" fill="#414141"/>
    <path id="Path_1734" data-name="Path 1734" d="M163.792,154.7a.394.394,0,0,0-.394.394v7.448a.394.394,0,1,0,.788,0V155.1A.394.394,0,0,0,163.792,154.7Zm0,0" transform="translate(-156.962 -148.608)" fill="#414141"/>
  </g>
</svg>
