<svg xmlns="http://www.w3.org/2000/svg" width="15.515" height="14.739" viewBox="0 0 15.515 14.739">
  <path id="ic_card_travel_24px" d="M15.964,5.1H13.636V3.552A1.546,1.546,0,0,0,12.085,2H7.43A1.546,1.546,0,0,0,5.879,3.552V5.1H3.552A1.546,1.546,0,0,0,2,6.655v8.533a1.546,1.546,0,0,0,1.552,1.552H15.964a1.546,1.546,0,0,0,1.552-1.552V6.655A1.546,1.546,0,0,0,15.964,5.1ZM7.43,3.552h4.655V5.1H7.43Zm8.533,11.636H3.552V13.636H15.964Zm0-3.879H3.552V6.655H5.879V8.206H7.43V6.655h4.655V8.206h1.552V6.655h2.327Z" transform="translate(-2 -2)" fill="#818181"/>
</svg>
