<svg width="22" height="21" viewBox="0 0 22 21" fill="none" xmlns="http://www.w3.org/2000/svg">
<g clip-path="url(#clip0_7:2)">
<path d="M14.2225 18.8075C12.0832 19.654 9.74065 19.6204 7.6265 18.7127C5.85029 17.9501 4.41418 16.6472 3.49597 14.987L7.05114 15.0381L7.07148 13.6223L1.66823 13.5447L1.59093 18.9244L3.0129 18.9448L3.04257 16.8799C5.70259 20.3639 10.4688 21.8165 14.7479 20.1233C16.3786 19.478 17.8141 18.4176 18.8992 17.0566C19.9511 15.7371 20.657 14.1613 20.9405 12.4997L19.5384 12.2624C19.0296 15.245 17.0423 17.6917 14.2225 18.8075Z" fill="white"/>
<path d="M15.0133 1.65263C12.5503 0.59528 9.82129 0.556068 7.32896 1.54222C5.69822 2.1875 4.26276 3.24794 3.17774 4.60894C2.12574 5.92846 1.41984 7.50425 1.13636 9.16588L2.53843 9.40316C3.04727 6.42061 5.03452 3.9739 7.85436 2.85811C9.99371 2.01161 12.3362 2.04526 14.4504 2.95289C16.2266 3.71542 17.6627 5.01833 18.5809 6.67854L15.0257 6.62746L15.0054 8.04322L20.4086 8.12086L20.4859 2.7412L19.064 2.72077L19.0344 4.77952C18.0006 3.42163 16.6274 2.34562 15.0133 1.65263Z" fill="white"/>
</g>
<defs>
<clipPath id="clip0_7:2">
<rect width="20" height="19.85" fill="white" transform="translate(0.970825 20.6864) rotate(-89.1768)"/>
</clipPath>
</defs>
</svg>
