<svg width="22" height="22" viewBox="0 0 22 22" fill="none" xmlns="http://www.w3.org/2000/svg">
<g clip-path="url(#clip0)">
<path d="M20.3051 13.8203C20.0025 13.8203 19.7572 14.0655 19.7572 14.3682V19.233C19.7562 20.1405 19.021 20.8759 18.1135 20.8768H2.73957C1.83209 20.8759 1.0969 20.1405 1.09583 19.233V4.95496C1.0969 4.04769 1.83209 3.31229 2.73957 3.31122H7.60445C7.90708 3.31122 8.15236 3.06594 8.15236 2.76331C8.15236 2.46088 7.90708 2.21539 7.60445 2.21539H2.73957C1.22724 2.21711 0.00171223 3.44263 0 4.95496V19.2333C0.00171223 20.7456 1.22724 21.9711 2.73957 21.9728H18.1135C19.6258 21.9711 20.8513 20.7456 20.853 19.2333V14.3682C20.853 14.0655 20.6078 13.8203 20.3051 13.8203V13.8203Z" fill="#3E40AE"/>
<path d="M20.636 0.805592C19.6731 -0.157324 18.112 -0.157324 17.149 0.805592L7.37392 10.5807C7.30693 10.6477 7.25856 10.7308 7.23331 10.8219L5.94785 15.4627C5.89499 15.653 5.94871 15.8567 6.08825 15.9965C6.22801 16.1361 6.43177 16.1898 6.62204 16.1371L11.2628 14.8515C11.354 14.8262 11.437 14.7778 11.504 14.7108L21.2789 4.93549C22.2404 3.97194 22.2404 2.41209 21.2789 1.44853L20.636 0.805592ZM8.56778 10.9369L16.568 2.93646L19.1481 5.51658L11.1477 13.517L8.56778 10.9369ZM8.0524 11.9711L10.1137 14.0326L7.26242 14.8226L8.0524 11.9711ZM20.5042 4.16071L19.9231 4.7418L17.3427 2.16146L17.924 1.58038C18.4589 1.04552 19.3261 1.04552 19.861 1.58038L20.5042 2.22332C21.0382 2.75882 21.0382 3.62542 20.5042 4.16071V4.16071Z" fill="#3E40AE"/>
</g>
<defs>
<clipPath id="clip0">
<rect width="22" height="22" fill="white"/>
</clipPath>
</defs>
</svg>
