<svg xmlns="http://www.w3.org/2000/svg" width="55.777" height="54.18" viewBox="0 0 55.777 54.18">
  <defs>
    <style>
      .cls-1 {
        fill: none;
      }

      .cls-2 {
        fill: #818181;
      }

      .cls-2, .cls-3, .cls-4 {
        fill-rule: evenodd;
      }

      .cls-3 {
        fill: #ffc22a;
      }

      .cls-4 {
        fill: #fff;
      }
    </style>
  </defs>
  <g id="Group_11619" data-name="Group 11619" transform="translate(-694.223 -374)">
    <g id="ic_email" transform="translate(-3803.777 -3469.375)">
      <rect id="Base" class="cls-1" width="51.555" height="51.555" transform="translate(4498 3846)"/>
      <path id="Icon" class="cls-2" d="M475.933-263h-27.5a3.432,3.432,0,0,0-3.42,3.437L445-238.941a3.447,3.447,0,0,0,3.437,3.437h27.5a3.447,3.447,0,0,0,3.437-3.437v-20.622A3.447,3.447,0,0,0,475.933-263Zm0,6.874-13.748,8.592-13.748-8.592v-3.437l13.748,8.592,13.748-8.592v3.437Z" transform="translate(4061.592 4121.029)"/>
    </g>
    <g id="ic_color_dot" transform="translate(-4178 -3472)">
      <rect id="Base-2" data-name="Base" class="cls-1" width="30" height="30" transform="translate(4898 3846)"/>
      <path id="Icon-2" data-name="Icon" class="cls-3" d="M775-245a10,10,0,0,0,10-10,10,10,0,0,0-10-10,10,10,0,0,0-10,10A10,10,0,0,0,775-245Z" transform="translate(4138 4116)"/>
    </g>
    <g id="ic_done" transform="translate(-3822.449 -3366.449)">
      <rect id="Base-3" data-name="Base" class="cls-1" width="18" height="18" transform="translate(4548.449 3746.449)"/>
      <path id="Icon-3" data-name="Icon" class="cls-4" d="M489.528-335.323l-2.646-2.646-.882.882,3.528,3.528,7.559-7.559-.882-.882-6.677,6.677Z" transform="translate(4065.78 4093.04)"/>
    </g>
  </g>
</svg>
