<svg xmlns="http://www.w3.org/2000/svg" width="37.169" height="43.778" viewBox="0 0 37.169 43.778">
  <defs>
    <style>
      .cls-1 {
        fill: #ffc22a;
      }

      .cls-2 {
        fill: #818181;
      }
    </style>
  </defs>
  <g id="Group_11621" data-name="Group 11621" transform="translate(-707.495 -375.309)">
    <path id="Path_1928" data-name="Path 1928" class="cls-1" d="M358.649,24.9a.879.879,0,0,1-.878-.878,9.166,9.166,0,0,0-2.7-6.523.878.878,0,0,1,1.242-1.242,10.909,10.909,0,0,1,3.216,7.765.879.879,0,0,1-.878.878Zm0,0" transform="translate(385.137 364.664)"/>
    <path id="Path_1929" data-name="Path 1929" class="cls-1" d="M.878,24.9A.879.879,0,0,1,0,24.018a10.91,10.91,0,0,1,3.216-7.765.878.878,0,0,1,1.242,1.242,9.164,9.164,0,0,0-2.7,6.523.879.879,0,0,1-.879.878Zm0,0" transform="translate(725.336 364.664)"/>
    <g id="Group_11620" data-name="Group 11620">
      <g id="smartphone_1_" data-name="smartphone (1)" transform="translate(593.803 375.309)">
        <g id="Group_3370" data-name="Group 3370" transform="translate(113.692)">
          <path id="Path_1927" data-name="Path 1927" class="cls-2" d="M133.132,0H118.343a4.647,4.647,0,0,0-4.651,4.564V39.219a4.6,4.6,0,0,0,4.606,4.559l14.814-.016a4.574,4.574,0,0,0,4.571-4.559L137.7,4.561A4.565,4.565,0,0,0,133.132,0ZM123.6,2.736h4.291a.684.684,0,0,1,0,1.368H123.6a.684.684,0,0,1,0-1.368Zm-2.578.218a.708.708,0,0,1,.968,0,.686.686,0,0,1-.482,1.17.7.7,0,0,1-.486-.2.69.69,0,0,1,0-.968Zm4.586,39.468a2.047,2.047,0,1,1,2.047-2.047A2.049,2.049,0,0,1,125.608,42.422Zm9.972-5.485H116.086V6.5H135.58Z" transform="translate(-113.692)"/>
        </g>
      </g>
      <path id="Path_1930" data-name="Path 1930" class="cls-1" d="M38.357,14.859a5.884,5.884,0,0,1-2.09-4.5V7.907A6.154,6.154,0,0,0,31,1.828V.879a.879.879,0,0,0-1.757,0v.949a6.154,6.154,0,0,0-5.271,6.079v2.449a5.891,5.891,0,0,1-2.1,4.509,1.537,1.537,0,0,0,1,2.705h14.5a1.537,1.537,0,0,0,.992-2.712Zm0,0" transform="translate(704.883 380)"/>
    </g>
  </g>
</svg>
