<svg xmlns="http://www.w3.org/2000/svg" width="13.964" height="16.874" viewBox="0 0 13.964 16.874">
  <path id="seat-recline-normal" d="M7.131,4.95a1.732,1.732,0,0,1,0-2.451A1.768,1.768,0,0,1,9.6,2.5a1.724,1.724,0,0,1,0,2.451A1.744,1.744,0,0,1,7.131,4.95ZM5.746,14.113V6.327H4v7.786a4.348,4.348,0,0,0,4.363,4.326H13.6V16.706H8.362A2.6,2.6,0,0,1,5.746,14.113Zm12.217,3.519-4.424-4.385h-3V10.062a8.339,8.339,0,0,0,4.8,1.871V10.062A5.94,5.94,0,0,1,11.268,8.3L10.045,6.957a1.8,1.8,0,0,0-.6-.432,1.929,1.929,0,0,0-.835-.2H8.579A1.951,1.951,0,0,0,6.62,8.27v4.977A2.6,2.6,0,0,0,9.236,15.84H13.66l3.054,3.029" transform="translate(-3.999 -1.995)" fill="#818181"/>
</svg>
