<svg xmlns="http://www.w3.org/2000/svg" width="16" height="16" fill="currentColor"><rect id="backgroundrect" width="100%" height="100%" x="0" y="0" fill="none" stroke="none"/>
<path d="M7.098360577225684,13 a1.5,1.5 0 1 1 -3,0 a1.5,1.5 0 0 1 3,0 zm0,-5 a1.5,1.5 0 1 1 -3,0 a1.5,1.5 0 0 1 3,0 zm0,-5 a1.5,1.5 0 1 1 -3,0 a1.5,1.5 0 0 1 3,0 z" fill="white" id="svg_1" class=""/>
<path d="M11.901639938354492,13 a1.5,1.5 0 1 1 -3,0 a1.5,1.5 0 0 1 3,0 zm0,-5 a1.5,1.5 0 1 1 -3,0 a1.5,1.5 0 0 1 3,0 zm0,-5 a1.5,1.5 0 1 1 -3,0 a1.5,1.5 0 0 1 3,0 z" fill="white" id="svg_2" class=""/>
</svg>