<svg xmlns="http://www.w3.org/2000/svg" xmlns:xlink="http://www.w3.org/1999/xlink" width="50" height="50" viewBox="0 0 50 50">
  <defs>
    <linearGradient id="linear-gradient" x1="0.5" x2="0.5" y2="1" gradientUnits="objectBoundingBox">
      <stop offset="0" stop-color="#c8c8c8"/>
      <stop offset="1" stop-color="#9f9f9f"/>
    </linearGradient>
  </defs>
  <g id="Group_1865" data-name="Group 1865" transform="translate(-439 -889)">
    <g id="Ellipse_115" data-name="Ellipse 115" transform="translate(439 889)" stroke="#fff" stroke-width="3" fill="url(#linear-gradient)">
      <circle cx="25" cy="25" r="25" stroke="none"/>
      <circle cx="25" cy="25" r="23.5" fill="none"/>
    </g>
    <g id="cloud-computing" transform="translate(449.999 837.35)">
      <g id="Group_6957" data-name="Group 6957" transform="translate(0 66.65)">
        <path id="Path_2182" data-name="Path 2182" d="M21.282,86.468H15.438v-5.9H17.37a.6.6,0,0,0,.49-.957l-3.757-5.2a.6.6,0,0,0-.974,0l-3.757,5.2a.6.6,0,0,0,.49.957h1.931v5.9H5.248A5.853,5.853,0,0,1,0,80.614a5.544,5.544,0,0,1,2.749-4.786,3.717,3.717,0,0,1-.228-1.3,3.769,3.769,0,0,1,3.773-3.773,3.709,3.709,0,0,1,1.291.228,7.554,7.554,0,0,1,14.353,2.493,6.572,6.572,0,0,1-.657,12.99Z" transform="translate(0 -66.65)" fill="#fff"/>
      </g>
    </g>
  </g>
</svg>
