<svg width="24" height="24" viewBox="0 0 24 24" fill="none" xmlns="http://www.w3.org/2000/svg">
<g clip-path="url(#clip0)">
<path d="M12 5C4.36698 5 2.07298 11.617 2.05198 11.684L1.94598 12L2.05098 12.316C2.07298 12.383 4.36698 19 12 19C19.633 19 21.927 12.383 21.948 12.316L22.054 12L21.949 11.684C21.927 11.617 19.633 5 12 5ZM12 17C6.64898 17 4.57598 13.154 4.07398 12C4.57798 10.842 6.65198 7 12 7C17.351 7 19.424 10.846 19.926 12C19.422 13.158 17.348 17 12 17V17Z" fill="#3E40AE"/>
<path d="M9 12C9 13.6539 10.3457 15 12 15C13.6539 15 15 13.6539 15 12C15 10.3461 13.6539 9 12 9C10.3457 9 9 10.3461 9 12ZM14.1429 12C14.1429 13.1816 13.1816 14.1429 12 14.1429C10.8184 14.1429 9.85714 13.1816 9.85714 12C9.85714 10.8184 10.8184 9.85714 12 9.85714C13.1816 9.85714 14.1429 10.8184 14.1429 12Z" fill="#3E40AE"/>
</g>
<defs>
<clipPath id="clip0">
<rect width="24" height="24" fill="white"/>
</clipPath>
</defs>
</svg>
