<svg xmlns="http://www.w3.org/2000/svg" width="32" height="32" viewBox="0 0 32 32">
  <g id="Ellipse_129" data-name="Ellipse 129" fill="#fff" stroke="#3e40ae" stroke-width="1">
    <circle cx="16" cy="16" r="16" stroke="none"/>
    <circle cx="16" cy="16" r="15.5" fill="none"/>
  </g>
  <path id="FontAwsome_user-cog_" data-name="FontAwsome (user-cog)" d="M16.693,10.207a3.208,3.208,0,0,0,0-1.165l.705-.407a.2.2,0,0,0,.09-.232,4.1,4.1,0,0,0-.908-1.57.2.2,0,0,0-.246-.038L15.63,7.2a3.21,3.21,0,0,0-1.009-.582V5.805a.2.2,0,0,0-.156-.194,4.126,4.126,0,0,0-1.81,0,.2.2,0,0,0-.156.194V6.62A3.21,3.21,0,0,0,11.49,7.2l-.705-.407a.2.2,0,0,0-.246.038A4.1,4.1,0,0,0,9.63,8.4a.2.2,0,0,0,.09.232l.705.407a3.208,3.208,0,0,0,0,1.165l-.705.407a.2.2,0,0,0-.09.232,4.124,4.124,0,0,0,.908,1.57.2.2,0,0,0,.246.038l.705-.407a3.21,3.21,0,0,0,1.009.582v.815a.2.2,0,0,0,.156.194,4.126,4.126,0,0,0,1.81,0,.2.2,0,0,0,.156-.194V12.63a3.21,3.21,0,0,0,1.009-.582l.705.407a.2.2,0,0,0,.246-.038,4.1,4.1,0,0,0,.908-1.57.2.2,0,0,0-.09-.232Zm-3.131.744a1.326,1.326,0,1,1,1.326-1.326A1.327,1.327,0,0,1,13.563,10.951ZM6.125,7a3.5,3.5,0,1,0-3.5-3.5A3.5,3.5,0,0,0,6.125,7Zm5.5,6.193c-.063-.033-.126-.071-.186-.107l-.216.126a1.073,1.073,0,0,1-1.326-.2,4.986,4.986,0,0,1-1.1-1.9,1.07,1.07,0,0,1,.489-1.25L9.5,9.734q0-.107,0-.213L9.289,9.4A1.068,1.068,0,0,1,8.8,8.146c.025-.079.06-.159.088-.238-.1-.008-.205-.033-.312-.033H8.118a4.76,4.76,0,0,1-3.987,0H3.675A3.676,3.676,0,0,0,0,11.55v1.138A1.313,1.313,0,0,0,1.313,14h9.625a1.311,1.311,0,0,0,.744-.232,1.065,1.065,0,0,1-.055-.323Z" transform="translate(7 9)" fill="#3e40ae"/>
</svg>
