<svg xmlns="http://www.w3.org/2000/svg" width="18" height="19.801" viewBox="0 0 18 19.801">
  <path id="calendar-clock" d="M13.8,11.8h1.35V14.34l2.194,1.267-.675,1.169L13.8,15.119Zm3.6-4.5H4.8v9.9H9.005A6.3,6.3,0,0,1,17.4,8.806ZM4.8,19A1.8,1.8,0,0,1,3,17.2L3.008,4.6A1.791,1.791,0,0,1,4.8,2.8h.9V1H7.5V2.8h7.2V1h1.8V2.8h.9a1.8,1.8,0,0,1,1.8,1.8V10.09A6.3,6.3,0,0,1,10.289,19Zm9.9-8.859A4.361,4.361,0,1,0,19.061,14.5,4.361,4.361,0,0,0,14.7,10.138Z" transform="translate(-2.999 -0.998)" fill="#c1c1c1"/>
</svg>
