<svg xmlns="http://www.w3.org/2000/svg" width="20" height="19.002" viewBox="0 0 20 19.002">
  <path id="seat-recline-extra" d="M5.351,5.64A2,2,0,1,1,8.14,5.151,2.01,2.01,0,0,1,5.351,5.64ZM16,19H8.931a2.99,2.99,0,0,1-2.96-2.539L4,7H2l1.986,9.755A5.014,5.014,0,0,0,8.94,21H16m.229-6H11.347l-1.025-4.1a7.689,7.689,0,0,0,5.146,1.22V9.99a6.091,6.091,0,0,1-4.687-1.25L9.141,7.471a2.3,2.3,0,0,0-1.754-.44H7.369A2.261,2.261,0,0,0,5.532,9.639L6.88,15.561A3,3,0,0,0,9.829,18H16.68L20.5,21,22,19.5" transform="translate(-2.003 -2)"/>
</svg>
