<svg xmlns="http://www.w3.org/2000/svg" width="20.215" height="23" viewBox="0 0 20.215 23">
  <g id="support" transform="translate(-31)">
    <g id="Group_1591" data-name="Group 1591" transform="translate(33.695 9.434)">
      <g id="Group_1590" data-name="Group 1590">
        <path id="Path_1876" data-name="Path 1876" d="M93.021,210A2.024,2.024,0,0,0,91,212.021v5.48a2.021,2.021,0,0,0,4.043,0v-5.48A2.024,2.024,0,0,0,93.021,210Z" transform="translate(-91 -210)" fill="#b7b7b7"/>
      </g>
    </g>
    <g id="Group_1593" data-name="Group 1593" transform="translate(31 10.888)">
      <g id="Group_1592" data-name="Group 1592">
        <path id="Path_1877" data-name="Path 1877" d="M32.348,242.934a3.343,3.343,0,0,1,.057-.568A2.017,2.017,0,0,0,31,244.281v2.785a2.017,2.017,0,0,0,1.405,1.915,3.343,3.343,0,0,1-.057-.568Z" transform="translate(-31 -242.366)" fill="#b7b7b7"/>
      </g>
    </g>
    <g id="Group_1595" data-name="Group 1595" transform="translate(39.086 9.434)">
      <g id="Group_1594" data-name="Group 1594">
        <path id="Path_1878" data-name="Path 1878" d="M218.412,210a2.024,2.024,0,0,0-2.021,2.021v5.48a2.024,2.024,0,0,0,2.021,2.021,1.994,1.994,0,0,0,.579-.095,2.017,2.017,0,0,1-1.927,1.442h-2.146a2.022,2.022,0,1,0,0,1.348h2.146a3.373,3.373,0,0,0,3.369-3.369v-6.828A2.024,2.024,0,0,0,218.412,210Z" transform="translate(-211 -210)" fill="#b7b7b7"/>
      </g>
    </g>
    <g id="Group_1597" data-name="Group 1597" transform="translate(49.81 10.888)">
      <g id="Group_1596" data-name="Group 1596">
        <path id="Path_1879" data-name="Path 1879" d="M449.722,242.366a3.345,3.345,0,0,1,.057.568v5.48a3.345,3.345,0,0,1-.057.568,2.017,2.017,0,0,0,1.405-1.915v-2.785A2.017,2.017,0,0,0,449.722,242.366Z" transform="translate(-449.722 -242.366)" fill="#b7b7b7"/>
      </g>
    </g>
    <g id="Group_1599" data-name="Group 1599" transform="translate(31)">
      <g id="Group_1598" data-name="Group 1598">
        <path id="Path_1880" data-name="Path 1880" d="M41.107,0A10.118,10.118,0,0,0,31,10.107v.017A3.337,3.337,0,0,1,32.379,9.5a8.749,8.749,0,0,1,17.458,0,3.338,3.338,0,0,1,1.379.626v-.017A10.118,10.118,0,0,0,41.107,0Z" transform="translate(-31)" fill="#b7b7b7"/>
      </g>
    </g>
  </g>
</svg>
