<svg xmlns="http://www.w3.org/2000/svg" width="26.475" height="26.475" viewBox="0 0 26.475 26.475">
  <path id="XMLID_227_" d="M25.271,16.366h-3.61V10.06c0-.011,0-.021,0-.032a1.2,1.2,0,0,0-.273-.761l-.005-.006c-.022-.027-.045-.052-.07-.077L21.3,9.173c-.011-.011-.02-.022-.032-.032L12.484.353h0c-.025-.025-.05-.048-.077-.07l-.025-.02c-.019-.015-.039-.03-.059-.044L12.291.2C12.27.183,12.249.17,12.227.158L12.2.142Q12.156.119,12.111.1L12.074.084,12.013.062,11.971.049,11.9.031,11.869.023c-.034-.007-.068-.012-.1-.015l-.032,0c-.028,0-.057,0-.085,0H1.2A1.2,1.2,0,0,0,0,1.2V25.271a1.2,1.2,0,0,0,1.2,1.2H20.458a1.2,1.2,0,0,0,1.2-1.2v-6.5h3.61a1.2,1.2,0,1,0,0-2.407ZM12.836,4.109l4.716,4.716H12.836Zm6.418,19.959H2.407V2.407h8.023v7.621a1.2,1.2,0,0,0,1.2,1.2h7.621v5.134H14.538l.954-.954a1.2,1.2,0,0,0-1.7-1.7l-3.008,3.008-.013.014c-.023.024-.045.048-.066.073l-.022.029c-.017.022-.034.043-.049.066l-.015.025c-.016.025-.032.05-.046.077l-.009.018c-.015.029-.029.058-.042.089l0,.012c-.013.032-.025.065-.035.1l0,.013c-.01.033-.018.066-.025.1,0,.01,0,.02,0,.03,0,.029-.01.057-.013.087a1.187,1.187,0,0,0,0,.24c0,.029.008.058.013.087,0,.01,0,.02,0,.03.007.035.016.068.026.1,0,0,0,.008,0,.012.01.034.022.067.035.1l0,.011c.013.031.027.06.042.09l.008.017c.014.027.03.052.047.078l.014.024c.016.024.033.046.051.069l.02.026c.023.028.048.055.073.081l.006.006,3.008,3.009a1.2,1.2,0,1,0,1.7-1.7l-.954-.954h4.716Z" fill="#b7b7b7"/>
</svg>
