<svg xmlns="http://www.w3.org/2000/svg" width="22.775" height="22.775" viewBox="0 0 22.775 22.775">
  <path id="dribbble" d="M18.416,20.7a45.614,45.614,0,0,0-1.64-5.97A12.833,12.833,0,0,1,18.6,14.6h.025a15.777,15.777,0,0,1,3.487.419A8.881,8.881,0,0,1,18.416,20.7Zm-5.028,1.578a8.826,8.826,0,0,1-5.279-1.751,12.82,12.82,0,0,1,2.062-2.538,12.078,12.078,0,0,1,4.616-2.795,43.848,43.848,0,0,1,1.754,6.5A8.83,8.83,0,0,1,13.388,22.273ZM4.5,13.388c0-.042,0-.085.005-.128.253.009.577.018.969.018h0a27.978,27.978,0,0,0,8.065-1.158q.258.565.511,1.176a14.069,14.069,0,0,0-5,2.95A15.242,15.242,0,0,0,6.6,19.1,8.833,8.833,0,0,1,4.5,13.388Zm4.96-7.959a27.182,27.182,0,0,1,3.171,4.832,25.675,25.675,0,0,1-7.017.985H5.477c-.276,0-.511,0-.709-.01A8.913,8.913,0,0,1,9.463,5.429ZM13.388,4.5a8.822,8.822,0,0,1,5.54,1.952,11.532,11.532,0,0,1-4.363,3.117A31.364,31.364,0,0,0,11.5,4.715,8.709,8.709,0,0,1,13.388,4.5Zm6.977,3.4a8.828,8.828,0,0,1,1.9,5.066,17.569,17.569,0,0,0-3.634-.405h-.008a14.7,14.7,0,0,0-2.574.226q-.3-.721-.595-1.383A13.817,13.817,0,0,0,20.365,7.9ZM13.388,2A11.388,11.388,0,1,0,24.775,13.388,11.387,11.387,0,0,0,13.388,2Z" transform="translate(-2 -2)" fill="#b7b7b7"/>
</svg>
