<svg xmlns="http://www.w3.org/2000/svg" width="21.832" height="22.444" viewBox="0 0 21.832 22.444">
  <path id="settings" d="M13.188,17.148a3.928,3.928,0,1,1,3.928-3.928A3.928,3.928,0,0,1,13.188,17.148Zm8.337-2.832a7.676,7.676,0,0,0,0-2.191L23.9,10.269a.56.56,0,0,0,.132-.716L21.784,5.665a.561.561,0,0,0-.687-.243L18.3,6.548a8.387,8.387,0,0,0-1.9-1.1l-.421-2.974A.562.562,0,0,0,15.433,2H10.944a.562.562,0,0,0-.554.472L9.969,5.443a8.415,8.415,0,0,0-1.9,1.1L5.279,5.422a.561.561,0,0,0-.687.243L2.348,9.553a.56.56,0,0,0,.132.716l2.37,1.856a7.675,7.675,0,0,0,0,2.191L2.48,16.171a.562.562,0,0,0-.132.717l2.244,3.887a.561.561,0,0,0,.687.244l2.793-1.126a8.39,8.39,0,0,0,1.9,1.1l.421,2.974a.561.561,0,0,0,.554.472h4.489a.562.562,0,0,0,.554-.472L16.408,21a8.411,8.411,0,0,0,1.9-1.1L21.1,21.018a.561.561,0,0,0,.687-.244l2.244-3.887a.562.562,0,0,0-.132-.717Z" transform="translate(-2.272 -1.998)" fill="#b7b7b7"/>
</svg>
