<svg xmlns="http://www.w3.org/2000/svg" width="31.674" height="31.674" viewBox="0 0 31.674 31.674">
  <g id="flight-ticket" transform="translate(0.001 -0.001)">
    <g id="Group_6899" data-name="Group 6899" transform="translate(-0.001 0.001)">
      <path id="Path_2140" data-name="Path 2140" d="M31.4,11.993,28.508,9.106A.948.948,0,0,0,27.24,9.04a3.275,3.275,0,0,1-4.606-4.606.948.948,0,0,0-.066-1.268L19.681.278a.948.948,0,0,0-1.341,0L.277,18.34a.948.948,0,0,0,0,1.341l2.887,2.887h0a.948.948,0,0,0,1.341,0,.967.967,0,0,0,.094-.109c.065-.078.133-.152.2-.222A3.275,3.275,0,1,1,9.435,26.87a3.316,3.316,0,0,1-.257.231A.948.948,0,0,0,9.1,28.509L11.992,31.4a.949.949,0,0,0,1.341,0L31.4,13.334A.948.948,0,0,0,31.4,11.993ZM19.2,18a.23.23,0,0,1-.229.229.232.232,0,0,1-.075-.013l-2.948-1.028a18.107,18.107,0,0,1-.218,2.441q-.031.184-.066.345l1.535.853a.125.125,0,0,1,.064.109v.52a.124.124,0,0,1-.165.118L15.3,20.949a.409.409,0,0,1-.692,0l-1.794.626a.124.124,0,0,1-.165-.118v-.52a.124.124,0,0,1,.064-.109l1.535-.853q-.035-.162-.066-.345a18.132,18.132,0,0,1-.218-2.441l-2.948,1.028a.229.229,0,0,1-.3-.217v-.956a.229.229,0,0,1,.118-.2l.666-.37v-.3a.367.367,0,0,1,.72-.1l.56-.311v-.278a.367.367,0,0,1,.714-.119l.5-.276a16.642,16.642,0,0,1,.2-1.907,5.113,5.113,0,0,1,.259-1.013c.05-.123.2-.5.514-.5s.464.374.514.5a5.111,5.111,0,0,1,.259,1.013,16.64,16.64,0,0,1,.2,1.907l.5.276a.367.367,0,0,1,.714.119v.278l.56.311a.367.367,0,0,1,.72.1v.3l.666.37a.23.23,0,0,1,.118.2V18h0Zm6.22-2.528a.989.989,0,0,1-1.4,0L16.2,7.654a.989.989,0,0,1,1.4-1.4l7.818,7.818A.989.989,0,0,1,25.419,15.472Z" transform="translate(0.001 -0.001)" fill="#b7b7b7"/>
    </g>
  </g>
</svg>
