<svg xmlns="http://www.w3.org/2000/svg" width="19" height="24.429" viewBox="0 0 19 24.429">
  <path id="office-building" d="M5,3V27.429h8.143v-4.75h2.714v4.75H24V3ZM7.714,5.714h2.714V8.429H7.714Zm5.429,0h2.714V8.429H13.143Zm5.429,0h2.714V8.429H18.571ZM7.714,11.143h2.714v2.714H7.714Zm5.429,0h2.714v2.714H13.143Zm5.429,0h2.714v2.714H18.571ZM7.714,16.571h2.714v2.714H7.714Zm5.429,0h2.714v2.714H13.143Zm5.429,0h2.714v2.714H18.571ZM7.714,22h2.714v2.714H7.714Zm10.857,0h2.714v2.714H18.571Z" transform="translate(-5 -3)" fill="#b7b7b7"/>
</svg>
