<svg xmlns="http://www.w3.org/2000/svg" width="30.648" height="22.29" viewBox="0 0 30.648 22.29">
  <path id="account-star-outline" d="M20.5,4a5.572,5.572,0,1,1-5.572,5.572A5.571,5.571,0,0,1,20.5,4Zm0,2.647a2.926,2.926,0,1,0,2.926,2.926A2.925,2.925,0,0,0,20.5,6.647Zm0,9.891c3.72,0,11.145,1.853,11.145,5.572V26.29H9.359V22.11C9.359,18.391,16.784,16.538,20.5,16.538Zm0,2.647c-4.179,0-8.5,2.034-8.5,2.926v1.532H29V22.11C29,21.219,24.641,19.185,20.5,19.185ZM6.572,16.928,3.09,19l.947-3.915L1,12.47l4-.348L6.572,8.444l1.546,3.678,4.026.348L9.08,15.089,9.985,19Z" transform="translate(-1 -4)" fill="#b7b7b7"/>
</svg>
