<svg xmlns="http://www.w3.org/2000/svg" width="24.786" height="24.501" viewBox="0 0 24.786 24.501">
  <g id="money_3_" data-name="money (3)" transform="translate(0.25 -2.75)">
    <g id="Group_6644" data-name="Group 6644" transform="translate(14.444 15.454)">
      <g id="Group_6643" data-name="Group 6643">
        <path id="Path_1978" data-name="Path 1978" d="M301.792,259.358a.842.842,0,1,1,.963-.833.438.438,0,0,0,.875,0,1.741,1.741,0,0,0-1.4-1.659v-.228a.438.438,0,1,0-.875,0v.228a1.741,1.741,0,0,0-1.4,1.659,1.779,1.779,0,0,0,1.838,1.708.842.842,0,1,1-.963.833.438.438,0,0,0-.875,0,1.741,1.741,0,0,0,1.4,1.659v.189a.438.438,0,0,0,.875,0v-.189a1.741,1.741,0,0,0,1.4-1.659A1.779,1.779,0,0,0,301.792,259.358Z" transform="translate(-299.954 -256.201)" fill="#b7b7b7"/>
      </g>
    </g>
    <g id="Group_6646" data-name="Group 6646" transform="translate(18.569 13.695) rotate(3)">
      <g id="Group_6645" data-name="Group 6645" transform="translate(0 0)">
        <path id="Path_1979" data-name="Path 1979" d="M386.88,222.889a5.7,5.7,0,0,0-2.329-2.061.438.438,0,1,0-.379.789,4.817,4.817,0,0,1,2.17,6.6.438.438,0,1,0,.773.411,5.694,5.694,0,0,0-.234-5.737Z" transform="translate(-383.924 -220.785)" fill="#b7b7b7"/>
      </g>
    </g>
    <g id="Group_6648" data-name="Group 6648" transform="translate(16.513 12.802)">
      <g id="Group_6647" data-name="Group 6647">
        <path id="Path_1980" data-name="Path 1980" d="M347.467,209h-.029a.438.438,0,0,0,0,.875h.027a.438.438,0,0,0,0-.875Z" transform="translate(-347 -209.001)" fill="#b7b7b7"/>
      </g>
    </g>
    <g id="Group_6650" data-name="Group 6650" transform="matrix(0.996, 0.087, -0.087, 0.996, 10.577, 15.51)">
      <g id="Group_6649" data-name="Group 6649">
        <path id="Path_1981" data-name="Path 1981" d="M215.608,279.952a4.817,4.817,0,0,1-2.17-6.6.438.438,0,1,0-.773-.411,5.691,5.691,0,0,0,2.563,7.8.438.438,0,1,0,.379-.789Z" transform="translate(-212.002 -272.711)" fill="#b7b7b7"/>
      </g>
    </g>
    <g id="Group_6652" data-name="Group 6652" transform="translate(15.055 24.376)">
      <g id="Group_6651" data-name="Group 6651">
        <path id="Path_1982" data-name="Path 1982" d="M316.843,449h-.025a.438.438,0,0,0,0,.875h.029a.438.438,0,0,0,0-.875Z" transform="translate(-316.378 -448.999)" fill="#b7b7b7"/>
      </g>
    </g>
    <g id="Group_6654" data-name="Group 6654" transform="translate(0 3)">
      <g id="Group_6653" data-name="Group 6653" transform="translate(0 0)">
        <path id="Path_1983" data-name="Path 1983" d="M18.376,11.166a2.177,2.177,0,0,0-.211-.387H19.4a2.182,2.182,0,1,0,0-4.364H15.6A2.18,2.18,0,0,0,13.8,3H2.182a2.182,2.182,0,1,0,0,4.364h3.8a2.176,2.176,0,0,0,0,2.466H4.743A2.181,2.181,0,0,0,3.387,13.72a2.178,2.178,0,0,0,0,3.415,2.178,2.178,0,0,0,0,3.415A2.181,2.181,0,0,0,4.743,24.44h5.59a8.062,8.062,0,1,0,8.043-13.273Zm1.024-3.8a1.233,1.233,0,0,1,0,2.466H7.779a1.233,1.233,0,1,1,0-2.466ZM2.182,6.415a1.233,1.233,0,0,1,0-2.466H13.8a1.233,1.233,0,1,1,0,2.466Zm2.561,4.364H16.364a1.233,1.233,0,0,1,.538.124c-.224-.019-.451-.029-.68-.029a8.038,8.038,0,0,0-5.706,2.372H4.743a1.233,1.233,0,0,1,0-2.466Zm0,3.415H9.705a8.041,8.041,0,0,0-1.219,2.466H4.743a1.233,1.233,0,1,1,0-2.466Zm0,3.415H8.268a8.07,8.07,0,0,0-.029,2.466h-3.5a1.233,1.233,0,1,1,0-2.466Zm0,5.882a1.233,1.233,0,1,1,0-2.466h3.69a8.032,8.032,0,0,0,1.138,2.466Zm11.479,2.561a7.115,7.115,0,1,1,7.115-7.115A7.123,7.123,0,0,1,16.222,26.052Z" transform="translate(0 -3)" fill="#b7b7b7" stroke="#b7b7b7" stroke-width="0.5"/>
      </g>
    </g>
  </g>
</svg>
