<svg xmlns="http://www.w3.org/2000/svg" width="32" height="32" viewBox="0 0 32 32">
  <g id="Ellipse_131" data-name="Ellipse 131" fill="#fff" stroke="#ffa439" stroke-width="1">
    <circle cx="16" cy="16" r="16" stroke="none"/>
    <circle cx="16" cy="16" r="15.5" fill="none"/>
  </g>
  <path id="FontAwsome_sitemap_" data-name="FontAwsome (sitemap)" d="M3.5,9.625H.875A.875.875,0,0,0,0,10.5v2.625A.875.875,0,0,0,.875,14H3.5a.875.875,0,0,0,.875-.875V10.5A.875.875,0,0,0,3.5,9.625ZM2.844,7.437h5.25V8.75H9.406V7.437h5.25V8.75h1.313V7.175a1.052,1.052,0,0,0-1.05-1.05H9.406V4.375H10.5a.875.875,0,0,0,.875-.875V.875A.875.875,0,0,0,10.5,0H7a.875.875,0,0,0-.875.875V3.5A.875.875,0,0,0,7,4.375H8.094v1.75H2.582a1.051,1.051,0,0,0-1.05,1.05V8.75H2.844Zm7.219,2.188H7.437a.875.875,0,0,0-.875.875v2.625A.875.875,0,0,0,7.437,14h2.625a.875.875,0,0,0,.875-.875V10.5A.875.875,0,0,0,10.063,9.625Zm6.563,0H14a.875.875,0,0,0-.875.875v2.625A.875.875,0,0,0,14,14h2.625a.875.875,0,0,0,.875-.875V10.5A.875.875,0,0,0,16.625,9.625Z" transform="translate(7 9)" fill="#ffa439"/>
</svg>
