<svg id="email" xmlns="http://www.w3.org/2000/svg" width="24.002" height="23" viewBox="0 0 24.002 23">
  <path id="Path_2154" data-name="Path 2154" d="M16.25,11.5H7.75a.75.75,0,0,1,0-1.5h8.5a.75.75,0,0,1,0,1.5Z" fill="#b7b7b7"/>
  <path id="Path_2155" data-name="Path 2155" d="M16.25,8.5H7.75a.75.75,0,0,1,0-1.5h8.5a.75.75,0,0,1,0,1.5Z" fill="#b7b7b7"/>
  <path id="Path_2156" data-name="Path 2156" d="M12.25,5.5H7.75a.75.75,0,0,1,0-1.5h4.5a.75.75,0,0,1,0,1.5Z" fill="#b7b7b7"/>
  <path id="Path_2157" data-name="Path 2157" d="M21.75,23H2.25A2.252,2.252,0,0,1,0,20.75V8.65A2.251,2.251,0,0,1,1.183,6.67L3.4,5.488A.75.75,0,0,1,4.1,6.811l-2.21,1.18A.762.762,0,0,0,1.5,8.65v12.1a.75.75,0,0,0,.75.75h19.5a.75.75,0,0,0,.75-.75V8.65a.761.761,0,0,0-.4-.66L19.9,6.812A.75.75,0,1,1,20.6,5.489l2.21,1.18A2.249,2.249,0,0,1,24,8.65v12.1A2.252,2.252,0,0,1,21.75,23Z" fill="#b7b7b7"/>
  <path id="Path_2158" data-name="Path 2158" d="M12,17a2.768,2.768,0,0,1-1.273-.309L.4,11.294A.75.75,0,0,1,1.1,9.965l10.32,5.39a1.294,1.294,0,0,0,1.169,0L22.9,9.965a.75.75,0,0,1,.695,1.329l-10.32,5.39A2.786,2.786,0,0,1,12,17Z" fill="#b7b7b7"/>
  <path id="Path_2159" data-name="Path 2159" d="M20.25,12.95a.75.75,0,0,1-.75-.75V2.75A1.252,1.252,0,0,0,18.25,1.5H5.75A1.252,1.252,0,0,0,4.5,2.75V12.2a.75.75,0,0,1-1.5,0V2.75A2.753,2.753,0,0,1,5.75,0h12.5A2.753,2.753,0,0,1,21,2.75V12.2A.75.75,0,0,1,20.25,12.95Z" fill="#b7b7b7"/>
</svg>
