<svg xmlns="http://www.w3.org/2000/svg" width="24.837" height="22.077" viewBox="0 0 24.837 22.077">
  <path id="FontAwsome_id-card-alt_" data-name="FontAwsome (id-card-alt)" d="M22.767,2.76H16.558V6.9H8.279V2.76H2.07A2.07,2.07,0,0,0,0,4.829V20.007a2.07,2.07,0,0,0,2.07,2.07h20.7a2.07,2.07,0,0,0,2.07-2.07V4.829A2.07,2.07,0,0,0,22.767,2.76Zm-10.349,6.9a2.76,2.76,0,1,1-2.76,2.76A2.762,2.762,0,0,1,12.418,9.659Zm4.023,9.659H8.4a.681.681,0,0,1-.673-.854,2.761,2.761,0,0,1,2.626-1.906H10.7a4.441,4.441,0,0,0,3.432,0h.354a2.763,2.763,0,0,1,2.626,1.906A.681.681,0,0,1,16.441,19.317ZM15.178,1.38A1.378,1.378,0,0,0,13.8,0h-2.76a1.378,1.378,0,0,0-1.38,1.38V5.519h5.519Z" fill="#b7b7b7"/>
</svg>
