<svg xmlns="http://www.w3.org/2000/svg" width="21.998" height="21.996" viewBox="0 0 21.998 21.996">
  <g id="exchange-rate" transform="translate(0 -0.022)">
    <g id="Group_3085" data-name="Group 3085" transform="translate(9.644 3.649)">
      <g id="Group_3084" data-name="Group 3084">
        <path id="Path_1913" data-name="Path 1913" d="M224.874,84.432a.4.4,0,1,0,0,.808h.3v-.808Z" transform="translate(-224.47 -84.432)" fill="#fff"/>
      </g>
    </g>
    <g id="Group_3087" data-name="Group 3087" transform="translate(11.652 5.763)">
      <g id="Group_3086" data-name="Group 3086">
        <path id="Path_1914" data-name="Path 1914" d="M271.514,133.651h-.3v.808h.3a.4.4,0,0,0,0-.808Z" transform="translate(-271.216 -133.651)" fill="#fff"/>
      </g>
    </g>
    <g id="Group_3089" data-name="Group 3089" transform="translate(5.911 0.022)">
      <g id="Group_3088" data-name="Group 3088" transform="translate(0 0)">
        <path id="Path_1915" data-name="Path 1915" d="M142.674.022a5.088,5.088,0,1,0,5.088,5.088A5.094,5.094,0,0,0,142.674.022Zm.951,7.856h-.3v.687h-1.307V7.878H140.5V6.571h1.516V5.763h-.3a1.711,1.711,0,1,1,0-3.421h.3V1.655h1.307v.687h1.516V3.649h-1.516v.808h.3a1.711,1.711,0,0,1,0,3.421Z" transform="translate(-137.586 -0.022)" fill="#fff"/>
      </g>
    </g>
    <g id="Group_3091" data-name="Group 3091" transform="translate(5.911 11.842)">
      <g id="Group_3090" data-name="Group 3090">
        <path id="Path_1916" data-name="Path 1916" d="M142.674,275.133a5.088,5.088,0,1,0,5.088,5.088A5.094,5.094,0,0,0,142.674,275.133Zm2.535,5.741h-3.625v.271a.892.892,0,0,0,.891.891h1.946v1.307h-1.946a2.2,2.2,0,0,1-2.2-2.2v-.271h-.923v-1.307h.923V279.3a2.2,2.2,0,0,1,2.2-2.2h1.946v1.307h-1.946a.892.892,0,0,0-.891.891v.271h3.625Z" transform="translate(-137.586 -275.133)" fill="#fff"/>
      </g>
    </g>
    <g id="Group_3093" data-name="Group 3093" transform="translate(16.732 4.622)">
      <g id="Group_3092" data-name="Group 3092">
        <path id="Path_1917" data-name="Path 1917" d="M392.066,108.613l.861-.276-.4-1.244-3.088.991.991,3.088,1.244-.4-.347-1.08a4.52,4.52,0,0,1-1.242,8.154l.35,1.259a5.827,5.827,0,0,0,1.629-10.492Z" transform="translate(-389.44 -107.092)" fill="#fff"/>
      </g>
    </g>
    <g id="Group_3095" data-name="Group 3095" transform="translate(0 5.406)">
      <g id="Group_3094" data-name="Group 3094" transform="translate(0)">
        <path id="Path_1918" data-name="Path 1918" d="M4.276,133.276l-1.244.4.347,1.082A4.521,4.521,0,0,1,4.621,126.6l-.35-1.259A5.823,5.823,0,0,0,.214,129.4a5.834,5.834,0,0,0,2.424,6.435l-.858.275.4,1.244,3.088-.991Z" transform="translate(0 -125.343)" fill="#fff"/>
      </g>
    </g>
  </g>
</svg>
