<svg xmlns="http://www.w3.org/2000/svg" width="42" height="18.841" viewBox="0 0 42 18.841">
  <g id="Group_7140" data-name="Group 7140" transform="translate(0 -2.541)">
    <g id="plane" transform="translate(0 2.541)">
      <g id="Group_56" data-name="Group 56" transform="translate(0 2.631)">
        <g id="Group_55" data-name="Group 55">
          <path id="Path_1144" data-name="Path 1144" d="M2.364,71.859,0,74.223l6.607,2.588,3.7-3.7Z" transform="translate(0 -71.859)" fill="#8c9aaf"/>
        </g>
      </g>
      <g id="Group_58" data-name="Group 58" transform="translate(0.036 0)">
        <g id="Group_57" data-name="Group 57">
          <path id="Path_1145" data-name="Path 1145" d="M19.454.87C19.006.421,18.231.377,17.212.742a5.427,5.427,0,0,0-1.786,1.023L6.193,11l-3.52.206L.985,12.893l2.758,1.331,1.31-1.31,1.539.027L4.8,14.733l.005,0-1.07,1.07.783.783,1.069-1.069.005.011,1.795-1.795V15.3L6.1,16.587l1.33,2.752,1.688-1.688.206-3.52L18.559,4.9a5.426,5.426,0,0,0,1.023-1.786C19.947,2.094,19.9,1.318,19.454.87Z" transform="translate(-0.985 -0.498)" fill="#8c9aaf"/>
        </g>
      </g>
      <g id="Group_60" data-name="Group 60" transform="translate(11.346 8.557)">
        <g id="Group_59" data-name="Group 59">
          <path id="Path_1146" data-name="Path 1146" d="M311.431,232.564l-3.7,3.7,2.577,6.58,2.364-2.364Z" transform="translate(-307.733 -232.564)" fill="#8c9aaf"/>
        </g>
      </g>
    </g>
    <path id="king-size-bed-with-two-pillows" d="M18,18.445a.42.42,0,0,0-.007-.073l0-.009a.433.433,0,0,0-.02-.063l-.008-.02-.005-.013L16.7,15.7a1.051,1.051,0,0,0,.66-.974V9.75a1.1,1.1,0,0,0-1.1-1.1,1.13,1.13,0,0,0-.2.018,1.089,1.089,0,0,0-.6.327c-1.007-1.156-3.843-1.77-6.542-1.77-2.636,0-5.4.585-6.468,1.689a1.084,1.084,0,0,0-.514-.246,1.13,1.13,0,0,0-.2-.018,1.1,1.1,0,0,0-1.1,1.1v4.976a1.051,1.051,0,0,0,.66.974L.044,18.266l-.005.013L.03,18.3a.432.432,0,0,0-.02.063l0,.009A.431.431,0,0,0,0,18.445s0,.007,0,.01v3.3a.431.431,0,0,0,.43.43h1.16v1.058a.431.431,0,0,0,.43.43H3.858a.431.431,0,0,0,.43-.43V22.183h9.578v1.058a.431.431,0,0,0,.43.43h1.837a.431.431,0,0,0,.43-.43V22.183h1a.431.431,0,0,0,.43-.43v-3.3S18,18.449,18,18.445Zm-7.938-7.08a.447.447,0,0,1,.447-.447h3.37a.447.447,0,0,1,.447.447v1.959a.447.447,0,0,1-.447.447h-3.37a.447.447,0,0,1-.447-.447Zm-6.386,0a.447.447,0,0,1,.447-.447h3.37a.447.447,0,0,1,.447.447v1.959a.447.447,0,0,1-.447.447H4.122a.447.447,0,0,1-.447-.447Zm-2.555,6.66,1.934-3.947a1.306,1.306,0,0,0,1.067.554h3.37a1.307,1.307,0,0,0,1.133-.658h.749a1.307,1.307,0,0,0,1.133.658h3.37a1.306,1.306,0,0,0,1.067-.554l1.934,3.947H1.121Z" transform="translate(24 -3.227)" fill="#8c9aaf"/>
  </g>
</svg>
