<svg xmlns="http://www.w3.org/2000/svg" width="28.385" height="22.077" viewBox="0 0 28.385 22.077">
  <path id="FontAwsome_address-card_" data-name="FontAwsome (address-card)" d="M26.019,32H2.365A2.366,2.366,0,0,0,0,34.365V51.712a2.366,2.366,0,0,0,2.365,2.365H26.019a2.366,2.366,0,0,0,2.365-2.365V34.365A2.366,2.366,0,0,0,26.019,32Zm0,19.712H2.365V34.365H26.019ZM10.25,43.038A3.154,3.154,0,1,0,7.1,39.885,3.157,3.157,0,0,0,10.25,43.038ZM5.835,49.346h8.831a1.033,1.033,0,0,0,1.1-.946v-.946a3.1,3.1,0,0,0-3.312-2.838,11.9,11.9,0,0,1-2.208.394,11.724,11.724,0,0,1-2.208-.394,3.1,3.1,0,0,0-3.312,2.838V48.4A1.033,1.033,0,0,0,5.835,49.346ZM17.74,46.192H23.26a.4.4,0,0,0,.394-.394V45.01a.4.4,0,0,0-.394-.394H17.74a.4.4,0,0,0-.394.394V45.8A.4.4,0,0,0,17.74,46.192Zm0-3.154H23.26a.4.4,0,0,0,.394-.394v-.788a.4.4,0,0,0-.394-.394H17.74a.4.4,0,0,0-.394.394v.788S17.524,43.038,17.74,43.038Zm0-3.154H23.26a.4.4,0,0,0,.394-.394V38.7a.4.4,0,0,0-.394-.394H17.74a.4.4,0,0,0-.394.394v.788A.4.4,0,0,0,17.74,39.885Z" transform="translate(0 -32)" fill="transparent"/>
</svg>
