<svg id="hierarchy" xmlns="http://www.w3.org/2000/svg" width="19.402" height="19.402" viewBox="0 0 19.402 19.402">
  <path id="Path_2160" data-name="Path 2160" d="M184.408,273.558v-1.99a.568.568,0,0,0-1.137,0v1.99l-2.046,1.535a.568.568,0,1,0,.682.909l1.933-1.45,1.933,1.45a.568.568,0,0,0,.682-.909Zm0,0" transform="translate(-174.138 -260.731)" fill="#8f8f8f"/>
  <path id="Path_2161" data-name="Path 2161" d="M200.547,2.274a2.274,2.274,0,1,0-2.274,2.274A2.276,2.276,0,0,0,200.547,2.274Zm0,0" transform="translate(-188.573)" fill="#8f8f8f"/>
  <path id="Path_2162" data-name="Path 2162" d="M172.821,123.979v-.568a3.411,3.411,0,1,0-6.821,0v.568a.568.568,0,0,0,.568.568h5.684A.568.568,0,0,0,172.821,123.979Zm0,0" transform="translate(-159.709 -115.453)" fill="#8f8f8f"/>
  <path id="Path_2163" data-name="Path 2163" d="M366.547,274.274a2.274,2.274,0,1,0-2.274,2.274A2.276,2.276,0,0,0,366.547,274.274Zm0,0" transform="translate(-348.282 -261.693)" fill="#8f8f8f"/>
  <path id="Path_2164" data-name="Path 2164" d="M335.411,392A3.414,3.414,0,0,0,332,395.411v.568a.568.568,0,0,0,.568.568h5.684a.568.568,0,0,0,.568-.568v-.568A3.414,3.414,0,0,0,335.411,392Zm0,0" transform="translate(-319.419 -377.145)" fill="#8f8f8f"/>
  <path id="Path_2165" data-name="Path 2165" d="M34.547,274.274a2.274,2.274,0,1,0-2.274,2.274A2.276,2.276,0,0,0,34.547,274.274Zm0,0" transform="translate(-28.863 -261.693)" fill="#8f8f8f"/>
  <path id="Path_2166" data-name="Path 2166" d="M3.411,392A3.414,3.414,0,0,0,0,395.411v.568a.568.568,0,0,0,.568.568H6.253a.568.568,0,0,0,.568-.568v-.568A3.414,3.414,0,0,0,3.411,392Zm0,0" transform="translate(0 -377.145)" fill="#8f8f8f"/>
</svg>
