<svg xmlns="http://www.w3.org/2000/svg" width="15.447" height="15.446" viewBox="0 0 15.447 15.446">
  <g id="history" transform="translate(0.4 0.4)">
    <path id="Path_1919" data-name="Path 1919" d="M7.9,3.948V7.086L9.978,9.169a.572.572,0,0,1-.809.809l-2.25-2.25a.572.572,0,0,1-.168-.4V3.948a.572.572,0,1,1,1.144,0ZM9.574,0h-4.5A5.055,5.055,0,0,0,1.746,1.244V.572A.572.572,0,1,0,.6.572v2.25a.574.574,0,0,0,.572.572h2.25a.572.572,0,1,0,0-1.144H2.342a3.942,3.942,0,0,1,2.73-1.106h4.5A3.933,3.933,0,0,1,13.5,5.073v4.5A3.933,3.933,0,0,1,9.574,13.5h-4.5A3.933,3.933,0,0,1,1.144,9.574V7.323A.572.572,0,1,0,0,7.323v2.25a5.079,5.079,0,0,0,5.073,5.073h4.5a5.079,5.079,0,0,0,5.073-5.073v-4.5A5.079,5.079,0,0,0,9.574,0Z" fill="#3a3fb2" stroke="#3a3fb2" stroke-width="0.8"/>
  </g>
</svg>
