<svg xmlns="http://www.w3.org/2000/svg" width="22.802" height="22.527" viewBox="0 0 22.802 22.527">
  <path id="home-run" d="M21.933,9.58l0,0L12.946.593a2.028,2.028,0,0,0-2.868,0L1.1,9.574l-.009.009a2.027,2.027,0,0,0,1.349,3.455c.021,0,.042,0,.063,0h.358v6.612a2.376,2.376,0,0,0,2.373,2.373H8.747a.645.645,0,0,0,.645-.645V16.2a1.084,1.084,0,0,1,1.083-1.083h2.073A1.084,1.084,0,0,1,13.632,16.2v5.184a.645.645,0,0,0,.645.645h3.515a2.376,2.376,0,0,0,2.373-2.373V13.041H20.5A2.028,2.028,0,0,0,21.933,9.58Zm-.914,1.954a.733.733,0,0,1-.521.216h-.977a.645.645,0,0,0-.645.645v7.258a1.084,1.084,0,0,1-1.083,1.083h-2.87V16.2a2.376,2.376,0,0,0-2.373-2.373H10.476A2.376,2.376,0,0,0,8.1,16.2v4.539H5.232a1.084,1.084,0,0,1-1.083-1.083V12.4A.645.645,0,0,0,3.5,11.75H2.513a.736.736,0,0,1-.508-1.258h0l8.985-8.985a.737.737,0,0,1,1.042,0l8.983,8.983,0,0a.739.739,0,0,1,0,1.041Zm0,0" transform="translate(-0.112 0.251)" fill="#fff" stroke="#fff" stroke-width="0.5"/>
</svg>
