<svg xmlns="http://www.w3.org/2000/svg" width="19.45" height="20" viewBox="0 0 19.45 20">
<defs/>
<g id="Layer-1">
<path d="M16.0568 16.6747L16.7826 16.9662C17.0123 17.0581 17.2744 16.9635 17.3926 16.7462L19.3926 13.2862C19.516 13.0724 19.4651 12.8006 19.2726 12.6462C19.2726 12.6462 17.1626 10.9962 17.1626 10.9962C17.2065 10.6713 17.2299 10.344 17.2326 10.0162C17.2299 9.68835 17.2065 9.36103 17.1626 9.03616L19.2726 7.38616C19.4651 7.23168 19.516 6.95987 19.3926 6.74616L17.3926 3.28616C17.2708 3.07304 17.0124 2.97983 16.7826 3.06616L14.2926 4.06616C13.7757 3.66531 13.2072 3.3357 12.6026 3.08616L12.2226 0.436162C12.1884 0.192727 11.9784 0.0127594 11.7326 0.0161619L7.73258 0.0161619C7.48678 0.0127594 7.27681 0.192727 7.24258 0.436162L6.86258 3.08616C6.25985 3.3396 5.69193 3.66892 5.17258 4.06616L2.68258 3.06616C2.45288 2.97427 2.19075 3.0688 2.07258 3.28616L0.0725833 6.74616C-0.0540343 6.95932-0.00265354 7.23335 0.192583 7.38616L2.30258 9.03616C2.25902 9.36107 2.23564 9.68836 2.23258 10.0162C2.23564 10.344 2.25902 10.6713 2.30258 10.9962L0.192584 12.6462C0.000115971 12.8006-0.0508475 13.0724 0.072584 13.2862L2.07258 16.7462C2.19435 16.9593 2.45281 17.0525 2.68258 16.9662L5.17258 15.9662C5.68951 16.367 6.25792 16.6966 6.86258 16.9462L7.24258 19.5962C7.27682 19.8396 7.48678 20.0196 7.73258 20.0162L11.7326 20.0162C11.9784 20.0196 12.1884 19.8396 12.2226 19.5962L12.6026 16.9462C13.2053 16.6927 13.7732 16.3634 14.2926 15.9662L16.0568 16.6747M9.73258 13.5162C7.79959 13.5162 6.23258 11.9492 6.23258 10.0162C6.23258 8.08317 7.79959 6.51616 9.73258 6.51616C11.6656 6.51616 13.2326 8.08317 13.2326 10.0162C13.2326 11.9492 11.6656 13.5162 9.73258 13.5162Z" fill="#fff" fill-rule="evenodd" opacity="1" stroke="none"/>
</g>
</svg>
