<svg xmlns="http://www.w3.org/2000/svg" width="19.257" height="19.5" viewBox="0 0 19.257 19.5">
  <g id="login" transform="translate(0.256 0.25)">
    <path id="Path_1907" data-name="Path 1907" d="M5.068,17.516H2.339a.793.793,0,0,1-.617-.282.754.754,0,0,1-.163-.65A8.438,8.438,0,0,1,9.67,10.09c.065,0,.131,0,.2,0s.132,0,.2,0a8.73,8.73,0,0,1,2.784.516.78.78,0,0,0,.993-.434.734.734,0,0,0-.451-.956q-.191-.069-.385-.13a4.983,4.983,0,0,0,2.1-4.039A5.153,5.153,0,0,0,9.867,0,5.153,5.153,0,0,0,4.625,5.047,4.984,4.984,0,0,0,6.731,9.089,10.136,10.136,0,0,0,3.5,10.8,9.629,9.629,0,0,0,.05,16.281,2.192,2.192,0,0,0,.527,18.17,2.362,2.362,0,0,0,2.339,19H5.068a.743.743,0,1,0,0-1.484Zm1.1-12.469a3.637,3.637,0,0,1,3.7-3.562,3.637,3.637,0,0,1,3.7,3.563,3.63,3.63,0,0,1-3.52,3.558l-.18,0-.181,0A3.63,3.63,0,0,1,6.167,5.047Z" fill="#fff" stroke="#fff" stroke-width="0.5"/>
    <path id="Path_1908" data-name="Path 1908" d="M157.373,314.025A1.748,1.748,0,0,0,155.778,313h-2.027a1.717,1.717,0,0,0-1.622,1.1c-.034.089-.076.2-.119.331h-4.247a.649.649,0,0,0-.465.2l-1.114,1.148a.649.649,0,0,0,0,.906l1.135,1.155a.649.649,0,0,0,.463.194h2.108a.649.649,0,0,0,0-1.3h-1.836l-.5-.509.482-.5H152.5a.649.649,0,0,0,.63-.494,5.359,5.359,0,0,1,.214-.668.425.425,0,0,1,.413-.265h2.024a.443.443,0,0,1,.412.257,4.189,4.189,0,0,1,.384,1.654,4.312,4.312,0,0,1-.381,1.683.443.443,0,0,1-.407.266h-2.048a.462.462,0,0,1-.418-.287,4.312,4.312,0,0,1-.2-.642.649.649,0,1,0-1.262.3,5.583,5.583,0,0,0,.263.835,1.75,1.75,0,0,0,1.616,1.09h2.051a1.739,1.739,0,0,0,1.595-1.044,5.615,5.615,0,0,0,.489-2.2A5.491,5.491,0,0,0,157.373,314.025Z" transform="translate(-138.869 -300.454)" fill="#fff"/>
    <circle id="Ellipse_143" data-name="Ellipse 143" cx="0.5" cy="0.5" r="0.5" transform="translate(15.562 15.562)" fill="#fff"/>
  </g>
</svg>
