<svg xmlns="http://www.w3.org/2000/svg" width="18" height="18" viewBox="0 0 18 18">
  <path id="map-legend" d="M9,3,3.359,4.9A.5.5,0,0,0,3,5.381V20.5a.5.5,0,0,0,.5.5l.16-.029L9,18.9,15,21l5.641-1.9a.5.5,0,0,0,.359-.48V3.5a.5.5,0,0,0-.5-.5l-.16.029L15,5.1ZM8,5.449v11.7L5,18.31V6.461Zm2,.021,4,1.4v11.66l-4-1.4ZM19,5.7v11.84l-3,1.012V6.859ZM7.459,6.3,5.57,6.971V9.117l1.889-.664Zm0,2.75L5.57,9.721v2.146L7.459,11.2Zm0,2.75-1.889.666v2.146l1.889-.664Zm0,2.75-1.889.666v2.147L7.459,16.7Z" transform="translate(-3 -3)" fill="#b7b7b7"/>
</svg>
