<svg xmlns="http://www.w3.org/2000/svg" width="26.909" height="26.909" viewBox="0 0 26.909 26.909">
  <g id="wallet_1_" data-name="wallet (1)" transform="translate(0.4 0.4)">
    <path id="Path_1871" data-name="Path 1871" d="M326.51,336a.51.51,0,1,0,.51.51A.51.51,0,0,0,326.51,336Zm0,0" transform="translate(-309.376 -318.866)" fill="#b7b7b7"/>
    <path id="Path_1872" data-name="Path 1872" d="M171.464,270.122a.687.687,0,1,1,0-1.374,1.1,1.1,0,0,1,.743.359.687.687,0,0,0,.955-.987,2.65,2.65,0,0,0-1.011-.632v-.8a.687.687,0,0,0-1.374,0v.805a2.061,2.061,0,0,0,.687,4,.687.687,0,0,1,0,1.374,1.243,1.243,0,0,1-.892-.52.687.687,0,0,0-1.052.884,2.849,2.849,0,0,0,1.257.895v.8a.687.687,0,1,0,1.374,0v-.8a2.061,2.061,0,0,0-.687-4Zm0,0" transform="translate(-161.808 -252.946)" fill="#b7b7b7"/>
    <path id="Path_1873" data-name="Path 1873" d="M110.51,109.06a.51.51,0,0,0,.51-.51v-2.04a.51.51,0,1,0-1.02,0v2.04A.51.51,0,0,0,110.51,109.06Zm0,0" transform="translate(-104.391 -100.595)" fill="#b7b7b7"/>
    <path id="Path_1874" data-name="Path 1874" d="M24.07,12.035V7.955a2.553,2.553,0,0,0-2.55-2.55H18.664V1.53A1.532,1.532,0,0,0,17.134,0H7.649a1.532,1.532,0,0,0-1.53,1.53V3.366H4.59A1.532,1.532,0,0,0,3.06,4.9v.51H2.55A2.553,2.553,0,0,0,0,7.955v15.6a2.553,2.553,0,0,0,2.55,2.55h15.6a2.554,2.554,0,0,0,2.5-2.04h.867a2.553,2.553,0,0,0,2.55-2.55V20.194h.51a1.532,1.532,0,0,0,1.53-1.53v-4.59A2.042,2.042,0,0,0,24.07,12.035Zm1.02,2.04a1.02,1.02,0,0,1-1.02,1.02v-2.04A1.021,1.021,0,0,1,25.089,14.075ZM21.52,6.425a1.532,1.532,0,0,1,1.53,1.53v7.139H20.7v-3.06a2.554,2.554,0,0,0-2.04-2.5V6.425ZM7.139,1.53a.51.51,0,0,1,.51-.51h9.485a.51.51,0,0,1,.51.51V9.485H15.3V4.9a1.532,1.532,0,0,0-1.53-1.53H7.139Zm5.1,7.955v-5.1h1.53a.51.51,0,0,1,.51.51v4.59Zm-3.06,0v-5.1h2.04v5.1ZM4.08,4.9a.51.51,0,0,1,.51-.51h3.57v5.1H4.08ZM2.55,6.425h.51v3.06h-.4A1.577,1.577,0,0,1,1.02,7.955a1.532,1.532,0,0,1,1.53-1.53Zm15.6,18.664H2.55a1.532,1.532,0,0,1-1.53-1.53V9.964a2.746,2.746,0,0,0,1.639.541h15.5a1.532,1.532,0,0,1,1.53,1.53v3.06h-3.57a1.532,1.532,0,0,0-1.53,1.53v2.04a1.532,1.532,0,0,0,1.53,1.53h3.57V23.56a1.532,1.532,0,0,1-1.53,1.53Zm4.9-3.57a1.532,1.532,0,0,1-1.53,1.53H20.7V20.194H23.05Zm1.53-2.346H16.114a.51.51,0,0,1-.51-.51v-2.04a.51.51,0,0,1,.51-.51H24.07a2.026,2.026,0,0,0,1.02-.273v2.823A.51.51,0,0,1,24.58,19.174Zm0,0" fill="#b7b7b7" stroke="#b7b7b7" stroke-width="0.8"/>
    <path id="Path_1875" data-name="Path 1875" d="M368.856,336H366.51a.51.51,0,1,0,0,1.02h2.346a.51.51,0,1,0,0-1.02Zm0,0" transform="translate(-347.336 -318.866)" fill="#b7b7b7"/>
  </g>
</svg>
