<svg xmlns="http://www.w3.org/2000/svg" width="26.004" height="26.004" viewBox="0 0 26.004 26.004">
  <g id="currency" transform="translate(0)">
    <path id="Path_1887" data-name="Path 1887" d="M103.45,62.746h-1.657a.724.724,0,0,1,0-1.448h1.6a1.086,1.086,0,0,1,.773.352A.765.765,0,0,0,105.28,60.6a2.621,2.621,0,0,0-1.881-.835h-.013v-.68a.765.765,0,1,0-1.53,0v.68a2.254,2.254,0,1,0-.064,4.507h1.657a.724.724,0,0,1,0,1.448h-1.742a1.1,1.1,0,0,1-.6-.2.765.765,0,1,0-.872,1.257,2.618,2.618,0,0,0,1.623.478v.68a.765.765,0,1,0,1.53,0v-.68a2.254,2.254,0,1,0,.064-4.507Z" transform="translate(-94.465 -55.35)" fill="#b7b7b7"/>
    <path id="Path_1888" data-name="Path 1888" d="M16.135,9.864A8.157,8.157,0,1,0,9.87,16.141a8.156,8.156,0,1,0,6.265-6.277ZM1.53,8.161a6.629,6.629,0,1,1,12.845,2.3,8.21,8.21,0,0,0-3.911,3.918A6.636,6.636,0,0,1,1.53,8.161ZM17.847,24.474a6.631,6.631,0,1,1,6.627-6.631A6.636,6.636,0,0,1,17.847,24.474Z" fill="#b7b7b7"/>
    <path id="Path_1889" data-name="Path 1889" d="M294.136,274.911a7.9,7.9,0,0,0-3.283-.322,7.922,7.922,0,0,0,.327-1.459h.917a.765.765,0,1,0,0-1.53h-.871c-.016-.242-.026-.311-.09-.9a1.006,1.006,0,0,1,1.751-.777.765.765,0,1,0,1.145-1.015,2.538,2.538,0,0,0-4.417,1.959c.069.629.064.573.077.735h-.544a.765.765,0,0,0,0,1.53h.487a6.454,6.454,0,0,1-.74,2.137.765.765,0,0,0,.875,1.108,6.424,6.424,0,0,1,3.9-.007.765.765,0,1,0,.463-1.458Z" transform="translate(-273.679 -254.386)" fill="#b7b7b7"/>
    <path id="Path_1890" data-name="Path 1890" d="M358.262,18.7a3.093,3.093,0,0,1,3.091,3.229v.72l-.689-.689a.765.765,0,1,0-1.082,1.081l1.995,2a.766.766,0,0,0,1.082,0l1.995-2a.765.765,0,1,0-1.082-1.081l-.689.689v-.72a4.623,4.623,0,0,0-4.621-4.759.765.765,0,1,0,0,1.53Z" transform="translate(-339.269 -16.296)" fill="#b7b7b7"/>
    <path id="Path_1891" data-name="Path 1891" d="M14.365,340.718a3.093,3.093,0,0,1-3.092-3.229v-.72l.689.689a.765.765,0,0,0,1.082-1.081l-1.995-2a.766.766,0,0,0-1.082,0l-1.995,2a.765.765,0,0,0,1.082,1.081l.689-.689v.72a4.623,4.623,0,0,0,4.621,4.759.765.765,0,1,0,0-1.53Z" transform="translate(-7.354 -317.12)" fill="#b7b7b7"/>
  </g>
</svg>
