<svg xmlns="http://www.w3.org/2000/svg" width="21" height="15" viewBox="0 0 21 15">
  <path id="ic_group_24px" d="M15.318,11.429a3.043,3.043,0,0,0,2.854-3.214A3.043,3.043,0,0,0,15.318,5a3.05,3.05,0,0,0-2.864,3.214A3.05,3.05,0,0,0,15.318,11.429Zm-7.636,0a3.043,3.043,0,0,0,2.854-3.214A3.043,3.043,0,0,0,7.682,5,3.05,3.05,0,0,0,4.818,8.214,3.05,3.05,0,0,0,7.682,11.429Zm0,2.143C5.458,13.571,1,14.825,1,17.321V20H14.364V17.321C14.364,14.825,9.906,13.571,7.682,13.571Zm7.636,0c-.277,0-.592.021-.926.054a4.659,4.659,0,0,1,1.88,3.7V20H22V17.321C22,14.825,17.542,13.571,15.318,13.571Z" transform="translate(-1 -5)" fill="#818181"/>
</svg>
