<svg xmlns="http://www.w3.org/2000/svg" width="19.289" height="22.918" viewBox="0 0 19.289 22.918">
  <g id="passenger_1_" data-name="passenger (1)" transform="translate(-40.538 0)">
    <path id="Path_2078" data-name="Path 2078" d="M279.586,4.025a2.015,2.015,0,1,0-1.876-2.145A2.015,2.015,0,0,0,279.586,4.025Z" transform="translate(-226.552 0)" fill="#e84d0e"/>
    <path id="Path_2079" data-name="Path 2079" d="M46.81,276.132a1.466,1.466,0,0,1-.323-.186l-1.308,2.835-.979-.451a.76.76,0,0,0-1.008.372l-2.584,5.6a.76.76,0,0,0,.372,1.008l.333.154a.6.6,0,1,0,1.013.467l.333.154a.76.76,0,0,0,1.008-.372l2.584-5.6a.759.759,0,0,0-.26-.944l1.348-2.924A1.458,1.458,0,0,1,46.81,276.132Z" transform="translate(0 -263.594)" fill="#e84d0e"/>
    <path id="Path_2080" data-name="Path 2080" d="M185.384,105.836l-2.731-.687-1.233-1.42.025-.373a1.361,1.361,0,0,0-1.267-1.449l-2.422-.162a1.361,1.361,0,0,0-1.441,1.186l.553-.159-2.235,1.194a.919.919,0,0,0-.415.456l-1.442,3.448a.919.919,0,0,0,1.7.709l1.315-3.146,1.946-1.04-1.428,1.207-.206.493-.26,3.887h.013c0,.044.131,2.646.195,3.923l-2.149,4.635a1.1,1.1,0,0,0,2,.928l2.264-4.882a1.1,1.1,0,0,0,.1-.519l-.2-3.937.5.033,1.221,3.63.463,5.307a1.1,1.1,0,0,0,2.2-.192l-.475-5.438a1.105,1.105,0,0,0-.053-.256l-.973-2.892.03,0,.267-3.99.208.24a.919.919,0,0,0,.47.289l3.011.758a.919.919,0,0,0,.449-1.783Z" transform="translate(-126.252 -97.188)" fill="#e84d0e"/>
  </g>
</svg>
