<svg xmlns="http://www.w3.org/2000/svg" width="20" height="20" viewBox="0 0 20 20">
  <path id="square-inc-cash" d="M4.583,0H15.417A4.583,4.583,0,0,1,20,4.583V15.417A4.583,4.583,0,0,1,15.417,20H4.583A4.583,4.583,0,0,1,0,15.417V4.583A4.583,4.583,0,0,1,4.583,0Zm8.238,12.65a2.136,2.136,0,0,1-2.111,2.307v-4.45C12.125,10.946,12.821,11.382,12.821,12.65ZM9.708,5.014V9.067c-1.094-.3-2.183-.791-2.183-2.045A2.061,2.061,0,0,1,9.708,5.014ZM12.922,6.33l.844-.66a4.327,4.327,0,0,0-3.058-1.7V3.166h-1v.79C7.937,4.071,6.4,5.143,6.4,7.089c0,2.078,1.719,2.726,3.308,3.154v4.723a3.607,3.607,0,0,1-2.68-1.612l-.944.626a4.71,4.71,0,0,0,3.624,1.966v.887h1v-.866a3.191,3.191,0,0,0,3.206-3.35c0-2.134-1.573-2.814-3.206-3.292V5.038A3.362,3.362,0,0,1,12.922,6.33Z" transform="translate(0 0)" fill="#818181"/>
</svg>
