<svg id="Group_6801" data-name="Group 6801" xmlns="http://www.w3.org/2000/svg" width="25.006" height="25.001" viewBox="0 0 25.006 25.001">
  <path id="Path_2111" data-name="Path 2111" d="M21.943,4.31,20.675,3.052a1.065,1.065,0,0,0-1.5.005L18.016,4.223A9.9,9.9,0,0,0,14.421,2.75l-.005-1.641A1.062,1.062,0,0,0,13.352.05L11.567.055a1.062,1.062,0,0,0-1.059,1.064l.005,1.641a9.92,9.92,0,0,0-3.585,1.5L5.763,3.108a1.065,1.065,0,0,0-1.5.005L3.007,4.376a1.065,1.065,0,0,0,.005,1.5L4.178,7.035A10,10,0,0,0,2.7,10.63l-1.641.005A1.062,1.062,0,0,0,0,11.7l.005,1.785a1.062,1.062,0,0,0,1.064,1.059l1.641-.005a9.92,9.92,0,0,0,1.5,3.585L3.058,19.288a1.065,1.065,0,0,0,.005,1.5l1.268,1.258a1.065,1.065,0,0,0,1.5-.005L6.99,20.878a9.9,9.9,0,0,0,3.595,1.473l.005,1.641a1.062,1.062,0,0,0,1.064,1.059l1.785-.005A1.062,1.062,0,0,0,14.5,23.982l-.005-1.641a9.92,9.92,0,0,0,3.585-1.5l1.166,1.156a1.065,1.065,0,0,0,1.5-.005L22,20.719a1.065,1.065,0,0,0-.005-1.5L20.833,18.06a9.9,9.9,0,0,0,1.473-3.595l1.641-.005A1.062,1.062,0,0,0,25.006,13.4L25,11.612a1.062,1.062,0,0,0-1.064-1.059l-1.641.005a9.92,9.92,0,0,0-1.5-3.585l1.156-1.166A1.059,1.059,0,0,0,21.943,4.31ZM12.529,19.681a7.134,7.134,0,1,1,7.108-7.159A7.133,7.133,0,0,1,12.529,19.681Z" transform="translate(0 -0.05)" fill="#b7b7b7"/>
  <path id="Path_2112" data-name="Path 2112" d="M179.107,146.131h-.02v-1a2.879,2.879,0,0,0-5.758,0v1h-.066a.764.764,0,0,0-.762.762v4.188a.764.764,0,0,0,.762.762h5.845a.764.764,0,0,0,.762-.762v-4.188A.767.767,0,0,0,179.107,146.131Zm-2.475,3.043a.156.156,0,0,0-.072.153v.92h0a.331.331,0,0,1-.174.312.358.358,0,0,1-.537-.307h0v-.926a.161.161,0,0,0-.066-.143.7.7,0,0,1-.23-.864.716.716,0,0,1,1.37.281A.674.674,0,0,1,176.632,149.174Zm1.191-3.043h-3.242v-1a1.621,1.621,0,0,1,3.242,0v1Z" transform="translate(-163.679 -134.978)" fill="#b7b7b7"/>
</svg>
