<svg xmlns="http://www.w3.org/2000/svg" width="32" height="32" viewBox="0 0 32 32">
  <g id="Ellipse_130" data-name="Ellipse 130" fill="#fff" stroke="#006d67" stroke-width="1">
    <circle cx="16" cy="16" r="16" stroke="none"/>
    <circle cx="16" cy="16" r="15.5" fill="none"/>
  </g>
  <path id="FontAwsome_chalkboard-teacher_" data-name="FontAwsome (chalkboard-teacher)" d="M5.686,9.625a.626.626,0,0,0-.193.03,3.607,3.607,0,0,1-1.119.189,3.61,3.61,0,0,1-1.12-.189.624.624,0,0,0-.193-.03A3.063,3.063,0,0,0,0,12.7,1.309,1.309,0,0,0,1.311,14H7.436a1.309,1.309,0,0,0,1.312-1.3A3.063,3.063,0,0,0,5.686,9.625ZM4.373,8.75A2.625,2.625,0,1,0,1.748,6.125,2.625,2.625,0,0,0,4.373,8.75ZM16.186,0H5.686A1.336,1.336,0,0,0,4.373,1.356V2.625a3.46,3.46,0,0,1,1.75.487V1.75h9.625V9.625H14V7.875H10.5v1.75H8.414A3.485,3.485,0,0,1,9.5,11.375h6.687A1.336,1.336,0,0,0,17.5,10.019V1.356A1.336,1.336,0,0,0,16.186,0Z" transform="translate(7.002 9)" fill="#006d67"/>
</svg>
