<svg xmlns="http://www.w3.org/2000/svg" width="33" height="33" viewBox="0 0 33 33">
  <g id="ic_settings" transform="translate(-4048 -3796)">
    <rect id="Base" width="33" height="33" transform="translate(4048 3796)" fill="none"/>
    <path id="Icon" d="M104.1-292.778a8.676,8.676,0,0,0,.078-1.091,8.675,8.675,0,0,0-.078-1.091l2.349-1.837a.562.562,0,0,0,.134-.712l-2.226-3.852a.56.56,0,0,0-.679-.245l-2.772,1.113a8.133,8.133,0,0,0-1.881-1.091l-.423-2.95a.543.543,0,0,0-.545-.468H93.6a.543.543,0,0,0-.545.468l-.423,2.95a8.553,8.553,0,0,0-1.881,1.091L87.983-301.6a.543.543,0,0,0-.679.245l-2.226,3.852a.549.549,0,0,0,.134.712l2.349,1.837a8.828,8.828,0,0,0-.078,1.091,8.829,8.829,0,0,0,.078,1.091l-2.349,1.837a.562.562,0,0,0-.134.712l2.226,3.852a.559.559,0,0,0,.679.245l2.772-1.113a8.133,8.133,0,0,0,1.881,1.091l.423,2.95a.543.543,0,0,0,.545.468h4.453a.543.543,0,0,0,.545-.468l.423-2.95a8.553,8.553,0,0,0,1.881-1.091l2.772,1.113a.543.543,0,0,0,.679-.245l2.226-3.852a.562.562,0,0,0-.134-.712l-2.349-1.837Zm-8.271,2.805a3.9,3.9,0,0,1-3.9-3.9,3.9,3.9,0,0,1,3.9-3.9,3.9,3.9,0,0,1,3.9,3.9,3.9,3.9,0,0,1-3.9,3.9Z" transform="translate(3969.679 4106.566)" fill="#b7b7b7" fill-rule="evenodd"/>
  </g>
</svg>
