<svg xmlns="http://www.w3.org/2000/svg" width="30.404" height="31.821" viewBox="0 0 30.404 31.821">
  <g id="passport" transform="translate(-10.435 0.15)">
    <g id="Group_6929" data-name="Group 6929" transform="translate(13.81 9.013)">
      <g id="Group_6928" data-name="Group 6928" transform="translate(0)">
        <path id="Path_1940" data-name="Path 1940" d="M65.035,134.152a6.45,6.45,0,1,0,6.45,6.45A6.45,6.45,0,0,0,65.035,134.152Zm4.773,4.031H67.484a10.441,10.441,0,0,0-.924-2.709A5.365,5.365,0,0,1,69.808,138.183ZM66.647,140.6a11.426,11.426,0,0,1-.085,1.344H63.508a10.656,10.656,0,0,1,0-2.687h3.056A11.549,11.549,0,0,1,66.647,140.6Zm-1.769-5.359c.053,0,.1-.016.156-.016s.1.014.158.016a8.932,8.932,0,0,1,1.191,2.94h-2.7A8.92,8.92,0,0,1,64.878,135.243Zm-1.368.232a10.473,10.473,0,0,0-.923,2.709H60.261A5.366,5.366,0,0,1,63.51,135.474ZM59.66,140.6a5.31,5.31,0,0,1,.191-1.344h2.573a12.682,12.682,0,0,0-.076,1.344,12.476,12.476,0,0,0,.078,1.344H59.851A5.31,5.31,0,0,1,59.66,140.6Zm.6,2.419h2.328a10.659,10.659,0,0,0,.919,2.708A5.365,5.365,0,0,1,60.261,143.021Zm4.929,2.94c-.053,0-.1.016-.156.016s-.1-.014-.156-.016a9,9,0,0,1-1.191-2.94h2.695A8.978,8.978,0,0,1,65.191,145.961Zm1.371-.232a10.629,10.629,0,0,0,.919-2.708h2.328A5.366,5.366,0,0,1,66.562,145.729Zm1.083-3.783a12.53,12.53,0,0,0,.077-1.344,12.683,12.683,0,0,0-.076-1.344h2.572a4.827,4.827,0,0,1,0,2.687Z" transform="translate(-58.585 -134.152)" fill="#b7b7b7" stroke="#b7b7b7" stroke-width="0.3"/>
      </g>
    </g>
    <g id="Group_6931" data-name="Group 6931" transform="translate(14.885 25.138)">
      <g id="Group_6930" data-name="Group 6930" transform="translate(0)">
        <rect id="Rectangle_1269" data-name="Rectangle 1269" width="10.75" height="1.075" fill="#b7b7b7" stroke="#b7b7b7" stroke-width="0.3"/>
      </g>
    </g>
    <g id="Group_6933" data-name="Group 6933" transform="translate(32.562 17.394)">
      <g id="Group_6932" data-name="Group 6932" transform="translate(0)">
        <rect id="Rectangle_1270" data-name="Rectangle 1270" width="2.15" height="1.075" transform="matrix(0.259, -0.966, 0.966, 0.259, 0, 2.077)" fill="#b7b7b7" stroke="#b7b7b7" stroke-width="0.3"/>
      </g>
    </g>
    <g id="Group_6935" data-name="Group 6935" transform="translate(30.058 21.546)">
      <g id="Group_6934" data-name="Group 6934" transform="translate(0)">
        <rect id="Rectangle_1271" data-name="Rectangle 1271" width="7.525" height="1.075" transform="matrix(0.259, -0.966, 0.966, 0.259, 0, 7.268)" fill="#b7b7b7" stroke="#b7b7b7" stroke-width="0.3"/>
      </g>
    </g>
    <g id="Group_6937" data-name="Group 6937" transform="translate(10.585)">
      <g id="Group_6936" data-name="Group 6936" transform="translate(0)">
        <path id="Path_1941" data-name="Path 1941" d="M39.09,3.412,26.63.074A2.148,2.148,0,0,0,24,1.594L22.873,5.788H11.66a1.075,1.075,0,0,0-1.075,1.075v21.5a1.075,1.075,0,0,0,1.075,1.075H24.076l7.5,2.01a2.148,2.148,0,0,0,2.633-1.52l6.4-23.882A2.15,2.15,0,0,0,39.09,3.412ZM11.66,28.363V6.863H27.785a1.076,1.076,0,0,1,1.075,1.075V27.288a1.076,1.076,0,0,1-1.075,1.075Zm27.912-22.6-6.4,23.882a1.073,1.073,0,0,1-1.317.76l-3.748-1a2.144,2.144,0,0,0,1.827-2.117V18.766l.551.148.557-2.077L30,16.558l-.069.257V8.273l1.1.294L32.3,12.723l.89.239-.084-3.838,1.572.421.691,1.219.593.159-.1-1.7L36.8,7.807l-.593-.159L35,8.358l-1.573-.421,1.992-3.282-.89-.239L31.349,7.38l-1.677-.449a2.141,2.141,0,0,0-1.888-1.142h-3.8l1.049-3.916a1.073,1.073,0,0,1,1.317-.76l12.46,3.339a1.075,1.075,0,0,1,.76,1.316Z" transform="translate(-10.585)" fill="#b7b7b7" stroke="#b7b7b7" stroke-width="0.3"/>
      </g>
    </g>
    <g id="Group_6939" data-name="Group 6939" transform="translate(32.563 14.553)">
      <g id="Group_6938" data-name="Group 6938">
        <rect id="Rectangle_1272" data-name="Rectangle 1272" width="1.075" height="1.057" transform="translate(0 1.039) rotate(-75.179)" fill="#b7b7b7" stroke="#b7b7b7" stroke-width="0.3"/>
      </g>
    </g>
    <g id="Group_6941" data-name="Group 6941" transform="translate(34.604 15.095)">
      <g id="Group_6940" data-name="Group 6940" transform="translate(0)">
        <rect id="Rectangle_1273" data-name="Rectangle 1273" width="1.075" height="1.057" transform="translate(0 1.039) rotate(-75.179)" fill="#b7b7b7" stroke="#b7b7b7" stroke-width="0.3"/>
      </g>
    </g>
    <g id="Group_6943" data-name="Group 6943" transform="translate(30.523 14.012)">
      <g id="Group_6942" data-name="Group 6942">
        <rect id="Rectangle_1274" data-name="Rectangle 1274" width="1.075" height="1.057" transform="translate(0 1.039) rotate(-75.179)" fill="#b7b7b7" stroke="#b7b7b7" stroke-width="0.3"/>
      </g>
    </g>
  </g>
</svg>
