<svg xmlns="http://www.w3.org/2000/svg" width="21.707" height="21.859" viewBox="0 0 21.707 21.859">
  <path id="ic_alarm_on_24px" d="M23.707,6.049,18.714,1.86l-1.4,1.661L22.307,7.71ZM8.382,3.521,6.993,1.86,2,6.039,3.4,7.7,8.382,3.521Zm4.472.662a9.768,9.768,0,1,0,9.768,9.768A9.769,9.769,0,0,0,12.853,4.183Zm0,17.365a7.6,7.6,0,1,1,7.6-7.6A7.592,7.592,0,0,1,12.853,21.548Zm-1.585-5.937L8.957,13.3l-1.15,1.15L11.258,17.9l6.512-6.512-1.15-1.15-5.351,5.372Z" transform="translate(-2 -1.86)" fill="#b7b7b7"/>
</svg>
