<svg xmlns="http://www.w3.org/2000/svg" width="26.574" height="16.178" viewBox="0 0 26.574 16.178">
  <g id="Group_3090" data-name="Group 3090" transform="translate(-797 -1200.025)">
    <path id="ic_message_24px" d="M15.108,12.1H6V10.578h9.108Zm0-2.289H6V8.289h9.108Zm0-2.289H6V6h9.108Z" transform="translate(802.369 1194.025)" fill="#fff"/>
    <path id="account-group" d="M14.287,6a3.624,3.624,0,1,0,3.624,3.624A3.624,3.624,0,0,0,14.287,6ZM7.04,8.616a3.02,3.02,0,1,0,2.529,4.662A5.833,5.833,0,0,1,8.248,9.624,5.936,5.936,0,0,1,8.3,8.9,2.994,2.994,0,0,0,7.04,8.616Zm14.5,0a2.994,2.994,0,0,0-1.257.283,5.929,5.929,0,0,1,.05.724,5.834,5.834,0,0,1-1.321,3.654,3.018,3.018,0,1,0,2.529-4.662Zm-7.248,7.047c-2.416,0-7.248,1.208-7.248,3.624V21.7h14.5V19.287C21.535,16.871,16.7,15.663,14.287,15.663ZM5.438,16.831C3.412,17.182,1,18.13,1,19.691V21.7H4.624V19.287A4.356,4.356,0,0,1,5.438,16.831Zm17.7,0a4.356,4.356,0,0,1,.814,2.456V21.7h3.624V19.691C27.574,18.13,25.162,17.182,23.137,16.831Z" transform="translate(796 1194.5)" fill="#b7b7b7"/>
  </g>
</svg>
