<svg xmlns="http://www.w3.org/2000/svg" width="28.312" height="28.312" viewBox="0 0 28.312 28.312">
  <g id="wallet_1_" data-name="wallet (1)" transform="translate(0.4 0.4)">
    <path id="Path_1871" data-name="Path 1871" d="M326.51,336a.51.51,0,1,0,.51.51A.51.51,0,0,0,326.51,336Zm0,0" transform="translate(-308.447 -317.908)" fill="#b7b7b7"/>
    <path id="Path_1872" data-name="Path 1872" d="M171.464,270.122a.687.687,0,1,1,0-1.374,1.1,1.1,0,0,1,.743.359.687.687,0,0,0,.955-.987,2.65,2.65,0,0,0-1.011-.632v-.8a.687.687,0,0,0-1.374,0v.805a2.061,2.061,0,0,0,.687,4,.687.687,0,0,1,0,1.374,1.243,1.243,0,0,1-.892-.52.687.687,0,0,0-1.052.884,2.849,2.849,0,0,0,1.257.895v.8a.687.687,0,1,0,1.374,0v-.8a2.061,2.061,0,0,0-.687-4Zm0,0" transform="translate(-161.326 -251.544)" fill="#b7b7b7"/>
    <path id="Path_1873" data-name="Path 1873" d="M110.51,109.06a.51.51,0,0,0,.51-.51v-2.04a.51.51,0,1,0-1.02,0v2.04A.51.51,0,0,0,110.51,109.06Zm0,0" transform="translate(-104.077 -100.266)" fill="#b7b7b7"/>
    <path id="Path_1874" data-name="Path 1874" d="M25.362,12.681v-4.3A2.69,2.69,0,0,0,22.676,5.7H19.667V1.612A1.614,1.614,0,0,0,18.055,0H8.06A1.614,1.614,0,0,0,6.448,1.612V3.546H4.836A1.614,1.614,0,0,0,3.224,5.158V5.7H2.687A2.69,2.69,0,0,0,0,8.382V24.825a2.69,2.69,0,0,0,2.687,2.687H19.129a2.691,2.691,0,0,0,2.633-2.149h.914a2.69,2.69,0,0,0,2.687-2.687v-1.4H25.9a1.614,1.614,0,0,0,1.612-1.612V14.831A2.152,2.152,0,0,0,25.362,12.681Zm1.075,2.149a1.075,1.075,0,0,1-1.075,1.075V13.756A1.076,1.076,0,0,1,26.437,14.831ZM22.676,6.77a1.614,1.614,0,0,1,1.612,1.612v7.523H21.816V12.681a2.691,2.691,0,0,0-2.149-2.633V6.77ZM7.523,1.612a.538.538,0,0,1,.537-.537h9.994a.538.538,0,0,1,.537.537V9.994H16.12V5.158a1.614,1.614,0,0,0-1.612-1.612H7.523ZM12.9,9.994V4.621h1.612a.538.538,0,0,1,.537.537V9.994Zm-3.224,0V4.621h2.149V9.994ZM4.3,5.158a.538.538,0,0,1,.537-.537H8.6V9.994H4.3ZM2.687,6.77h.537V9.994H2.8A1.662,1.662,0,0,1,1.075,8.382,1.614,1.614,0,0,1,2.687,6.77ZM19.129,26.437H2.687a1.614,1.614,0,0,1-1.612-1.612V10.5a2.894,2.894,0,0,0,1.727.571H19.129a1.614,1.614,0,0,1,1.612,1.612v3.224H16.98a1.614,1.614,0,0,0-1.612,1.612v2.149a1.614,1.614,0,0,0,1.612,1.612h3.761v3.546a1.614,1.614,0,0,1-1.612,1.612Zm5.158-3.761a1.614,1.614,0,0,1-1.612,1.612h-.86V21.279h2.472ZM25.9,20.2H16.98a.538.538,0,0,1-.537-.537V17.517a.538.538,0,0,1,.537-.537h8.382a2.135,2.135,0,0,0,1.075-.288v2.974A.538.538,0,0,1,25.9,20.2Zm0,0" fill="#b7b7b7" stroke="#b7b7b7" stroke-width="0.8"/>
    <path id="Path_1875" data-name="Path 1875" d="M368.856,336H366.51a.51.51,0,1,0,0,1.02h2.346a.51.51,0,1,0,0-1.02Zm0,0" transform="translate(-346.185 -317.908)" fill="#b7b7b7"/>
  </g>
</svg>
