<svg xmlns="http://www.w3.org/2000/svg" width="32" height="32" viewBox="0 0 32 32">
  <g id="Ellipse_132" data-name="Ellipse 132" fill="#fff" stroke="#00c3d3" stroke-width="1">
    <circle cx="16" cy="16" r="16" stroke="none"/>
    <circle cx="16" cy="16" r="15.5" fill="none"/>
  </g>
  <path id="FontAwsome_users_" data-name="FontAwsome (users)" d="M3,38a2,2,0,1,0-2-2A2,2,0,0,0,3,38Zm14,0a2,2,0,1,0-2-2A2,2,0,0,0,17,38Zm1,1H16a1.994,1.994,0,0,0-1.409.581A4.571,4.571,0,0,1,16.938,43H19a1,1,0,0,0,1-1V41A2,2,0,0,0,18,39Zm-8,0a3.5,3.5,0,1,0-3.5-3.5A3.5,3.5,0,0,0,10,39Zm2.4,1h-.259a4.832,4.832,0,0,1-4.281,0H7.6A3.6,3.6,0,0,0,4,43.6v.9A1.5,1.5,0,0,0,5.5,46h9A1.5,1.5,0,0,0,16,44.5v-.9A3.6,3.6,0,0,0,12.4,40Zm-6.991-.419A1.994,1.994,0,0,0,4,39H2a2,2,0,0,0-2,2v1a1,1,0,0,0,1,1H3.059A4.583,4.583,0,0,1,5.409,39.581Z" transform="translate(6 -23)" fill="#00c3d3"/>
</svg>
