<svg xmlns="http://www.w3.org/2000/svg" width="18.333" height="17.098" viewBox="0 0 18.333 17.098">
  <g id="telephone-with-fax" transform="translate(0 -20.608)">
    <g id="Fax2_1_" transform="translate(0 20.608)">
      <path id="Path_2139" data-name="Path 2139" d="M380.854,130.521h-2.226a.187.187,0,0,0,0,.374h2.226a.187.187,0,1,0,0-.374Z" transform="translate(-367.104 -127.228)" fill="#b1b1b1"/>
      <path id="Path_2140" data-name="Path 2140" d="M383.079,93.052h-4.452a.187.187,0,0,0,0,.374h4.452a.187.187,0,1,0,0-.374Z" transform="translate(-367.104 -90.882)" fill="#b1b1b1"/>
      <path id="Path_2141" data-name="Path 2141" d="M383.079,55.582h-4.452a.187.187,0,0,0,0,.374h4.452a.187.187,0,1,0,0-.374Z" transform="translate(-367.104 -54.534)" fill="#b1b1b1"/>
      <path id="Path_2142" data-name="Path 2142" d="M280.561,23.415V20.608h-6.248v2.806H271.83a3.776,3.776,0,0,1,.331,1.571v9.578a3.776,3.776,0,0,1-.331,1.571h8.694a1.5,1.5,0,0,0,1.5-1.5V24.911A1.5,1.5,0,0,0,280.561,23.415Zm-5.874-2.432h5.5v3.854h-5.5Zm.393,11.9c-.7,0-.786-.085-.786-.786s.085-.786.786-.786.786.085.786.786S275.781,32.88,275.08,32.88Zm0-2.32c-.7,0-.786-.085-.786-.786s.085-.786.786-.786.786.085.786.786S275.781,30.56,275.08,30.56Zm0-2.32c-.7,0-.786-.085-.786-.786s.085-.786.786-.786.786.085.786.786S275.781,28.241,275.08,28.241Zm2.357,4.639c-.7,0-.786-.085-.786-.786s.085-.786.786-.786.786.085.786.786S278.138,32.88,277.437,32.88Zm0-2.32c-.7,0-.786-.085-.786-.786s.085-.786.786-.786.786.085.786.786S278.138,30.56,277.437,30.56Zm0-2.32c-.7,0-.786-.085-.786-.786s.085-.786.786-.786.786.085.786.786S278.138,28.241,277.437,28.241Zm2.357,4.639c-.7,0-.786-.085-.786-.786s.085-.786.786-.786.786.085.786.786S280.495,32.88,279.794,32.88Zm0-2.32c-.7,0-.786-.085-.786-.786s.085-.786.786-.786.786.085.786.786S280.495,30.56,279.794,30.56Zm0-2.32c-.7,0-.786-.085-.786-.786s.085-.786.786-.786.786.085.786.786S280.495,28.241,279.794,28.241Z" transform="translate(-263.687 -20.608)" fill="#b1b1b1"/>
      <path id="Path_2143" data-name="Path 2143" d="M51.229,61.824a3.143,3.143,0,0,0-3.143,3.143v9.578a3.143,3.143,0,0,0,6.286,0V64.967A3.143,3.143,0,0,0,51.229,61.824Z" transform="translate(-46.646 -60.589)" fill="#b1b1b1"/>
      <path id="Path_2144" data-name="Path 2144" d="M.985,117.289A1.5,1.5,0,0,0,0,118.7v9.728a1.5,1.5,0,0,0,.985,1.406,3.788,3.788,0,0,1-.293-1.481V118.77A3.788,3.788,0,0,1,.985,117.289Z" transform="translate(0 -114.393)" fill="#b1b1b1"/>
    </g>
  </g>
</svg>
