<svg xmlns="http://www.w3.org/2000/svg" width="13.997" height="14" viewBox="0 0 13.997 14">
  <path id="FontAwsome_globe_" data-name="FontAwsome (globe)" d="M9.5,12.29C9.089,9.77,8.123,8,7,8S4.911,9.77,4.5,12.29ZM4.29,15a17.692,17.692,0,0,0,.093,1.806h5.23A17.692,17.692,0,0,0,9.707,15a17.692,17.692,0,0,0-.093-1.806H4.383A17.692,17.692,0,0,0,4.29,15Zm9.165-2.71a7.015,7.015,0,0,0-4.46-4,9.526,9.526,0,0,1,1.411,4ZM5,8.294a7.01,7.01,0,0,0-4.457,4H3.593A9.488,9.488,0,0,1,5,8.294Zm8.756,4.9H10.52c.059.593.093,1.2.093,1.806s-.034,1.214-.093,1.806h3.235A6.94,6.94,0,0,0,14,15a7.061,7.061,0,0,0-.24-1.806ZM3.387,15c0-.607.034-1.214.093-1.806H.243a6.843,6.843,0,0,0,0,3.613H3.477C3.421,16.214,3.387,15.607,3.387,15ZM4.5,17.71C4.911,20.23,5.877,22,7,22s2.089-1.77,2.5-4.29Zm4.5,4a7.021,7.021,0,0,0,4.46-4H10.41A9.526,9.526,0,0,1,9,21.706Zm-8.454-4a7.015,7.015,0,0,0,4.46,4,9.526,9.526,0,0,1-1.411-4H.545Z" transform="translate(0 -8)" fill="#b1b1b1"/>
</svg>
