<svg xmlns="http://www.w3.org/2000/svg" width="22.798" height="22.798" viewBox="0 0 22.798 22.798">
  <path id="Icon" d="M136.4-345A11.4,11.4,0,0,0,125-333.6a11.4,11.4,0,0,0,11.4,11.4,11.4,11.4,0,0,0,11.4-11.4A11.4,11.4,0,0,0,136.4-345Zm0,3.42a3.415,3.415,0,0,1,3.42,3.42,3.415,3.415,0,0,1-3.42,3.42,3.415,3.415,0,0,1-3.42-3.42,3.415,3.415,0,0,1,3.42-3.42Zm0,16.187a8.208,8.208,0,0,1-6.839-3.671c.034-2.268,4.56-3.511,6.839-3.511s6.805,1.242,6.839,3.511a8.208,8.208,0,0,1-6.839,3.671Z" transform="translate(-125 345)" fill="#b7b7b7" fill-rule="evenodd"/>
</svg>
